<?xml version="1.0" encoding="utf-8"?>
<!-- Generator: Adobe Illustrator 25.2.1, SVG Export Plug-In . SVG Version: 6.00 Build 0)  -->
<svg version="1.1" id="Logo" xmlns="http://www.w3.org/2000/svg" xmlns:xlink="http://www.w3.org/1999/xlink" x="0px" y="0px"
	 viewBox="0 0 500 500" style="enable-background:new 0 0 500 500;" xml:space="preserve">
<style type="text/css">
	.st0{fill:#0866FF;}
</style>
<g id="Logo-2">
	<path id="Initiator" class="st0" d="M500,250C500,111.9,388.1,0,250,0S0,111.9,0,250c0,117.2,80.7,215.6,189.6,242.6V326.4h-51.6
		V250h51.6v-32.9c0-85.1,38.5-124.5,122-124.5c15.8,0,43.2,3.1,54.4,6.2V168c-5.9-0.6-16.1-0.9-28.9-0.9c-41,0-56.8,15.5-56.8,55.9
		v27H362l-14,76.4h-67.7v171.8C404.1,483.2,500,377.8,500,250z"/>
</g>
</svg>
