<?xml version="1.0" encoding="UTF-8"?>
<svg id="Capa_2" data-name="Capa 2" xmlns="http://www.w3.org/2000/svg" viewBox="0 0 178.391 183.012">
  <defs>
    <style>
      .cls-1 {
        fill: #fff;
      }
    </style>
  </defs>
  <g id="Capa_1-2" data-name="Capa 1">
    <g>
      <g>
        <path class="cls-1" d="m72.191,68.715c.02-.006.041-.011.061-.017-.008.007-.014.015-.021.023l.853.131,4.787.734c.199.03.396.06.593.089.43.064.855.123,1.275.177,3.212.413,6.105.477,8.616-.803,1.238-.631,2.285-1.617,3.058-2.789.009-.013.016-.027.024-.04.015-.022.028-.046.042-.068.177-.277.339-.562.484-.856.073-.149.142-.299.207-.452-.102.036-.205.073-.318.11-.071.024-.143.047-.218.071-.343.109-.726.221-1.149.331-.008.009-.015.017-.023.026-.005-.005-.011-.01-.016-.016-.109.028-.221.056-.335.084-.743.182-1.599.356-2.574.505-1.479.226-3.231.393-5.274.438-.354.008-.713.013-1.084.013h-.257c-.012,0-.024,0-.037,0-.989,0-1.948.002-2.859.04-.122.005-.244.011-.365.017-.31.017-.614.038-.911.065-.003,0-.006,0-.009,0-.149.014-.295.03-.441.047-1.383.163-2.6.487-3.571,1.118-.388.252-.736.552-1.04.912.003.012.007.024.011.035l.489.075Z"/>
        <path class="cls-1" d="m76.584,65.251c.079-.007.158-.014.237-.021.35-.029.706-.051,1.067-.067.081-.004.163-.007.244-.01.306-.011.621-.015.934-.02.654-.011,1.315-.015,1.986-.015h.129c.035,0,.067,0,.102,0,.452-.001.889-.008,1.314-.021,2.847-.085,5.086-.42,6.766-.8.009-.002.016-.004.025-.006.395-.09.76-.182,1.094-.274.246-.068.474-.135.687-.202.009-.003.017-.006.026-.008.212-.067.408-.132.587-.195.365-.129.66-.247.892-.347.416-.179.625-.298.634-.303l.039-.022c.061-.031.12-.062.181-.093.191-.097.373-.196.558-.295.419-.223.828-.447,1.216-.673,5.006-2.917,7.536-6.116,8.9-9.261.134-.308.255-.615.368-.922.57-1.552.886-3.082,1.106-4.549-.975,1.382-2.411,3.167-4.343,4.943-2.936,2.699-7.501,5.76-13.685,6.693-.516.078-1.043.141-1.582.188-1.059.092-2.162.122-3.308.077-.018,0-.037,0-.055-.002-.149-.006-.294-.007-.441-.011-.447-.012-.886-.015-1.316-.005-.197.004-.391.012-.584.021-1.296.058-2.508.217-3.63.475-.43.099-.847.212-1.251.341-.074.023-.147.048-.22.072-1.69.566-3.145,1.392-4.357,2.478-.101.09-.204.179-.302.272-1.316,1.268-2.155,2.714-2.692,4.043-.11.273-.209.541-.295.802.193.164.383.318.571.466.107.084.21.156.316.234.044.003.089.005.133.009.285.023.568.053.851.086.24.028.479.058.717.09.006,0,.013.002.019.003.023-.037.045-.074.069-.109.129-.197.266-.382.411-.555.02-.024.039-.051.06-.075.119-.138.244-.266.373-.389.315-.303.659-.564,1.029-.789,1.233-.749,2.747-1.095,4.412-1.253.003,0,.006,0,.009-.001Z"/>
        <path class="cls-1" d="m99.246,71.762c-2.375-1.248-4.599-2.774-6.662-4.496-.061-.05-.119-.103-.179-.154-.882,1.285-2.062,2.365-3.466,3.08-1.763.899-3.642,1.212-5.641,1.212-1.21,0-2.464-.116-3.763-.284-.122.45-.29.917-.518,1.406-1.561,3.351-4.55,6.01-8.02,7.301-.187,2.598-.871,5.165-2.008,7.503.613,2.215.86,4.536.729,6.831,1.172,1.483,2.164,3.111,2.942,4.833,2.33.506,4.672,1.635,6.778,3.306.401.318.788.651,1.164.995,1.695-.45,3.43-.829,5.214-.93.909-.051,2.004-.032,3.154.16.291.048.585.107.881.179.367.09.736.201,1.104.334.72-.893,1.682-1.677,2.844-2.298,2.297-1.228,4.992-1.662,7.587-1.222,1.209.205,2.384.601,3.481,1.16.002-.011.004-.021.006-.032.008-.05.017-.097.023-.149.069-.592.045-1.293-.208-2.032-.621-1.813-2.387-3.321-5.251-4.483-2.007-.814-3.76-1.774-5.256-2.745-.619-.401-1.193-.804-1.722-1.2-.174-.637-.335-1.316-.474-2.027-.411-2.098-.626-4.486-.364-6.975.539-5.12,4.7-7.921,7.625-9.274Z"/>
        <path class="cls-1" d="m109.887,31.098c-3.531-.407-6.836,4.583-10.334,9.865-2.111,3.188-4.281,6.464-6.74,9.006,4.888-1.208,8.134-3.25,10.19-5.058,2.083-1.831,3.258-3.669,3.855-4.817.158-.451.346-.882.577-1.291,1.214-2.147,2.54-3.27,3.942-3.338.322-.016.62.027.893.105.368-.852.739-2.168.278-3.099-.372-.751-1.268-1.212-2.661-1.372Z"/>
        <path class="cls-1" d="m70.229,78.745c.277-.094.55-.2.821-.313,2.946-1.233,5.457-3.56,6.803-6.448.17-.365.302-.711.401-1.041-.191-.028-.383-.057-.576-.087l-4.381-.671c.062.726.042,1.47-.068,2.213-.264,1.783-1.014,3.578-2.192,5.279-.25.361-.52.717-.809,1.069Z"/>
        <path class="cls-1" d="m115.385,65.731c-.075-.009-.153-.017-.234-.024-.297-.027-.631-.047-.989-.061-.752-.029-1.593-.032-2.34-.023-.095.001-.19.002-.282.004.543.382,1.256.817,2.017,1.106.299.113.605.204.911.26.15.027.301.047.451.056.599.036,1.144-.327,1.306-.864.072-.239.022-.269-.147-.324-.162-.053-.402-.095-.692-.129Z"/>
        <path class="cls-1" d="m104.87,102.152c-1.143-.672-2.398-1.144-3.699-1.365-2.315-.393-4.719-.006-6.766,1.088-.875.468-1.626,1.051-2.214,1.704.342.179.68.38,1.008.61l-.008.011-.73,1.042c-.336-.236-.685-.436-1.04-.611-.395-.195-.797-.356-1.202-.486-.252-.081-.504-.152-.755-.212-1.295-.305-2.561-.341-3.576-.284-1.414.08-2.82.353-4.208.696-.482.119-.961.247-1.437.379-.458.127-.914.256-1.366.386l-.353-1.236c.198-.057.397-.114.597-.17-.159-.134-.319-.267-.482-.396-1.684-1.337-3.524-2.295-5.37-2.832-.508-.148-1.015-.265-1.521-.347-1.026-.167-2.042-.2-3.019-.085l-.15-1.277c.832-.098,1.686-.098,2.549-.013-.585-1.172-1.282-2.289-2.068-3.338-.214-.286-.434-.568-.663-.843-.548-.661-1.136-1.286-1.758-1.875-.382-.361-.776-.708-1.183-1.039-.718-.583-1.469-1.123-2.259-1.6l.665-1.101c.59.357,1.162.745,1.716,1.158.031.023.062.047.094.071.461-.57.883-1.171,1.27-1.795.238-.385.462-.778.671-1.18.164-.314.318-.633.464-.956.853-1.895,1.394-3.937,1.599-6.009-.353.092-.709.166-1.068.23-.684.654-1.405,1.267-2.145,1.849-.08-.478-.167-.955-.267-1.431.592-.484,1.164-.988,1.708-1.522l-.011-.08c.038-.005.076-.014.114-.019.233-.232.461-.468.683-.712.38-.419.728-.846,1.047-1.279.426-.578.796-1.168,1.108-1.764.572-1.093.95-2.208,1.113-3.312.112-.751.117-1.502.028-2.226l-.517-.079c-.044-.007-.089-.013-.133-.02-.133-.021-.267-.041-.402-.061-.002,0-.005,0-.007-.001-.311-.047-.623-.091-.936-.133-.123-.017-.245-.033-.368-.048-.01-.001-.019-.002-.029-.004-.095-.012-.191-.023-.286-.034-.063-.007-.125-.015-.187-.022-.068.068-.135.136-.204.203-.001.001-.003.003-.004.004-.058.058-.114.115-.172.173-.007.007-.013.014-.021.021-.121.121-.244.242-.362.363-1.67,1.722-2.947,3.807-3.777,6.061-.206.559-.383,1.129-.534,1.706-.049.188-.095.376-.138.566-.066.291-.126.583-.178.877-.197,1.121-.288,2.261-.269,3.397.007.411.03.821.067,1.23.076.855.216,1.704.423,2.538l-1.247.311c-.452-1.809-.607-3.684-.491-5.546-.287.484-.533.996-.736,1.528-.149.391-.277.792-.379,1.202-.374,1.506-.422,3.114-.085,4.669.163.752.419,1.488.746,2.2.262.568.572,1.119.926,1.647.613.913,1.356,1.757,2.204,2.496.357.311.732.603,1.124.875.538.374,1.105.71,1.699.998l-.56,1.157c-.512-.248-1.004-.527-1.477-.829-.388-.248-.762-.512-1.121-.794-.728-.571-1.388-1.21-1.979-1.9.079,1.775.611,3.542,1.556,5.026.727,1.142,1.71,2.133,2.841,2.905.778.531,1.627.956,2.514,1.254.349.117.703.217,1.061.293.813.173,1.639.243,2.471.25.431.004.865-.01,1.298-.036,1.117-.067,2.236-.217,3.337-.365l.171,1.275c-1.47.197-3.062.411-4.67.411-.695,0-1.393-.042-2.085-.14.561.505,1.167.952,1.83,1.316.04.022.079.047.12.069,1.66.875,3.779,1.241,6.127,1.057.03-.002.06-.007.089-.009.666-.056,1.332-.153,1.992-.274.492-.09.98-.193,1.461-.306.462-.109.919-.223,1.366-.342.241-.064.47-.129.705-.193.26-.071.525-.143.777-.213l.059.213.286,1.025c-.327.091-.662.184-1.002.276-.436.119-.882.238-1.336.351-.105.026-.211.05-.317.076.13.042.261.08.392.117.029.008.057.018.086.026.594.162,1.2.271,1.812.33,1.326.128,2.673.011,3.955-.356.084-.024.168-.046.251-.072.41-.129.809-.286,1.198-.463.57-.26,1.116-.57,1.629-.926.177-.122.347-.253.516-.385.23-.181.455-.369.67-.569.315-.293.611-.605.888-.934.469-.557.882-1.161,1.224-1.807l1.136.602c-.416.784-.924,1.514-1.504,2.18-.157.181-.321.356-.488.527-.135.137-.271.273-.413.403-.086.079-.173.154-.261.231.155.013.31.022.466.03.053.003.106.007.16.01.453.019.897.014,1.332-.008,1.221-.063,2.364-.291,3.4-.666,1.104-.4,2.085-.968,2.897-1.699.947-.852,1.677-1.936,2.296-3.073Z"/>
        <path class="cls-1" d="m102.668,28.167c-.117.015-.233.033-.349.056-1.599.318-3.138,1.454-4.586,3.394-1.845,2.473-3.323,5.116-4.716,7.719-.231.431-.459.861-.687,1.288-.046.088-.092.173-.138.26-2.232,4.205-4.248,7.931-7.171,10.113,1.962-.066,3.755-.253,5.391-.531,2.986-2.541,5.57-6.439,8.07-10.213,3.028-4.573,5.916-8.938,9.216-10.139-.91-.825-2.572-2.023-4.541-1.984-.163.003-.326.018-.488.038Z"/>
        <path class="cls-1" d="m63.198,76.478c-.436-1.015-.735-2.084-.892-3.177-.097.268-.19.549-.274.858-.565,2.081-.816,4.25-.755,6.41.37-.588.794-1.135,1.269-1.634.165-.832.382-1.654.652-2.457Z"/>
        <path class="cls-1" d="m117.343,63.833c-.019-.227-.153-.421-.358-.519-.153-.073-.311-.126-.472-.172-.287-.081-.583-.122-.885-.13-1.642-.04-3.42.896-4.437,1.538.195.036.425.073.684.106.686.087,1.599.152,2.764.132.239-.004.488-.011.748-.023.005,0,.01,0,.016,0,.091-.004.175-.011.258-.017.81-.066,1.231-.245,1.441-.392.244-.17.25-.422.242-.523Z"/>
        <path class="cls-1" d="m112.294,36.964c-.245-.134-.536-.232-.862-.214-.908.049-1.892.961-2.848,2.638-.059.168-.226.611-.547,1.24-.418,1.251-.594,2.737-.79,4.392-.015.133-.031.267-.048.402.989-.274,2.013-.412,3.056-.36.807.069,1.619.281,2.385.656.32.157.452.543.295.863-.168.348-.617.469-.937.253-1.437-.97-3.165-1.117-4.866-.859-.226,1.817-.536,3.817-1.263,5.884,2.088.196,4.933.133,6.533-1.306l.645.717c-1.429,1.286-3.602,1.639-5.558,1.639-.703,0-1.378-.046-1.981-.11-1.536,3.721-4.559,7.6-10.975,10.976-.394.864-.837,1.703-1.327,2.513,2.353,1.824,4.956,3.505,7.651,4.814.513.25,1.029.487,1.548.708,3.066,1.307,6.2,2.092,9.16,2.035,2.013.004,1.948-4.258,1.832-6.148-1.876-.653-3.447-2.089-3.53-2.164l-.667-.617-.065-.06.158-.124.457-.36c.15-.118,3.148-2.435,5.996-2.316l-.045-1.865.049-.049c.316-.315.755-.743,1.185-1.162.38-.371.754-.736,1.032-1.011.62-.506.766-1.382.344-2.004-.101-.16-.23-.276-.38-.41l-.118-.108c-1.316-1.163-3.531-3.596-3.548-6.801-.023-.511.022-1.131.124-1.74.762-3.914-1.346-8.486-2.095-9.944Z"/>
        <path class="cls-1" d="m64.59,61.63c-.01.225-.003.451.013.676.005.079.015.158.023.237.019.187.044.373.082.559.045.222.105.442.177.661.083.257.182.511.298.762.091.197.195.391.306.583.295.508.658.999,1.093,1.462.29-.768.673-1.58,1.177-2.389.22-.354.465-.706.734-1.055.355-.459.753-.912,1.203-1.347,1.369-1.323,3.03-2.32,4.967-2.994.091-.032.183-.062.275-.093.407-.133.824-.255,1.254-.36.87-.213,1.788-.368,2.754-.466,1.116-.114,2.296-.149,3.537-.109.091.003.18.003.272.007.443.018.878.024,1.307.019,10.796-.102,17.432-7.104,20.332-11.078.052-.071.103-.141.152-.21.861-1.203,1.361-2.093,1.513-2.374.025-.208.052-.411.079-.613-.6.739-1.33,1.524-2.218,2.311-3.29,2.918-9.449,6.413-20.105,6.493-.712.005-1.407.026-2.088.058-.467.022-.928.05-1.38.085-1.385.106-2.696.27-3.927.489-.129.023-.251.051-.378.075-.311.059-.623.117-.924.183-.581.128-1.141.268-1.68.422-.141.04-.281.081-.419.123-.13.04-.256.082-.383.123-.546.175-1.067.365-1.563.568-.798.327-1.531.69-2.194,1.086-.131.078-.262.156-.388.237-.715.46-1.339.963-1.868,1.505-.653.669-1.159,1.398-1.506,2.182-.043.096-.087.192-.124.29-.072.187-.131.375-.184.564-.084.3-.145.601-.181.904-.017.141-.03.283-.036.425Z"/>
        <path class="cls-1" d="m88.231,6.374c-21.492,0-38.978,17.486-38.978,38.978v61.572h21.385c-.695-.575-1.326-1.222-1.902-1.903-2.325-.857-4.346-2.466-5.686-4.569-1.397-2.194-1.993-4.832-1.704-7.403-.744-1.207-1.289-2.519-1.587-3.892-.456-2.103-.285-4.295.404-6.273-.382-3.022-.171-6.126.628-9.062.349-1.286.815-2.288,1.407-3.025.009-.151.019-.302.034-.453.005-.054.013-.107.018-.161.034-.314.078-.627.136-.936.279-1.499.834-2.934,1.624-4.231-.069-.153-.135-.308-.194-.464-.082-.215-.157-.431-.22-.65-.132-.463-.216-.933-.257-1.406-.084-.97.026-1.948.34-2.894-.028-.097-.057-.193-.084-.29-.016-.153-.024-.306-.038-.459-.174-.716-.223-1.437-.14-2.126-.011-.256-.028-.512-.035-.769.003-4.48.062-9.24,2.469-13.224.306-.485.657-.942,1.045-1.369-.259-.152-1.57-1.47-1.978-1.918-.281-.308-.563-.598-.843-.868-1.687-1.623-3.331-2.574-4.537-3.114-.687-.308-1.228-.482-1.557-.574-.148.238-.378.424-.674.494-.484.114-.998-.136-1.217-.596-.327-.688.078-1.507.824-1.627.386-.062.78.109,1.018.428.192.257.247.541.219.81.738.146,1.499.194,2.265.124.739-.068,1.482-.239,2.209-.526,3.053-1.205,5.021-4.092,5.297-7.254-.001-.002-.002-.002-.003-.003-.425-.028-.812-.315-.96-.757-.222-.666.193-1.402.91-1.496.428-.056.859.17,1.07.559.255.467.154,1.002-.165,1.346v.003c2.189,1.704,5.151,2.245,7.899,1.161,2.784-1.099,4.667-3.597,5.187-6.426.017-.094.029-.19.043-.285-.454.002-.879-.286-1.035-.755-.222-.666.193-1.401.909-1.496.416-.055.839.156,1.055.529.291.501.168,1.093-.207,1.439.062.042.123.087.187.128,2.107,1.342,4.773,1.694,7.263.712,2.456-.969,4.209-3.028,4.945-5.442.034-.112.064-.225.094-.338-.43-.011-.831-.285-.992-.727-.241-.658.152-1.406.865-1.523.428-.07.866.144,1.088.528.311.537.143,1.183-.306,1.512.085.068.169.137.256.201,1.632,1.692,3.917,2.278,7.727,1.03.149-.049.288-.12.429-.185.341-.157.665-.34.975-.539-.026-.048-.053-.097-.073-.151-.213-.584.071-1.237.635-1.46.635-.251,1.355.152,1.468.888.067.435-.132.884-.493,1.12-.363.238-.778.223-1.106.04-.089.153-.187.331-.293.538-.616,1.202-1.45,3.292-1.711,6.143-.036.389-.06.793-.072,1.21-.018.619-.007,1.269.038,1.948.014.216.038.44.06.662,2.817.165,4.919,2.195,5.599,2.94.271-.015.545-.008.823.024,1.857.213,3.092.914,3.669,2.083.734,1.487.143,3.291-.292,4.264-.181.404-.335.668-.355.702l-.255-.153.519.769c1.555,2.866,2.209,5.866,1.9,8.69-.018.184-.045.39-.073.602-.048.36-.097.733-.102,1.037-.033.465-.004,1,.083,1.599.285,1.863,1.405,3.647,3.33,5.302.587.406.98,1.055,1.082,1.782.096.69-.084,1.353-.508,1.867-.412.452-.968,1.013-1.505,1.556-.247.25-.487.493-.701.712l.071,1.618c.169.053.338.114.502.192.519.247.858.736.905,1.31.046.556-.197,1.077-.651,1.393-.171.12-.372.219-.599.302.17.275.211.624.093,1.014-.277.917-1.168,1.552-2.15,1.552-.046,0-.092-.002-.138-.004-.168-.01-.337-.032-.504-.061.159,2.285.194,5.817-1.848,6.806-1.186.401-2.513.219-3.704.129-2.35-.283-4.607-.949-6.789-1.82-.417-.172-.828-.355-1.237-.544-2.589,1.039-7.348,3.613-7.878,8.651-.31,2.94.103,5.772.701,8.097,1.684,1.223,3.8,2.501,6.32,3.524,3.236,1.313,5.252,3.09,5.992,5.281.169.501.255.984.288,1.44.04.552,0,1.064-.08,1.511-.018.1-.04.192-.061.285-.004.018-.009.036-.013.054.17.111.337.227.501.347-.188.386-.385.774-.596,1.156-.665,1.205-1.463,2.366-2.517,3.315-.299.269-.623.512-.957.743h24.733v-61.572c0-21.493-17.486-38.978-38.978-38.978Z"/>
        <path class="cls-1" d="m66.841,90.78c-.009.111-.019.221-.029.332.576.5,1.126,1.032,1.65,1.59-.016-1.238-.149-2.474-.395-3.688-.375.611-.784,1.201-1.226,1.766Z"/>
        <path class="cls-1" d="m89.486,0h-2.509c-24.32,0-44.036,19.716-44.036,44.036v69.159h90.581V44.036C133.522,19.716,113.807,0,89.486,0Zm39.57,108.77h-31.637c-.603.077-1.219.127-1.856.127-.222,0-.447-.005-.673-.014-.433-.018-.864-.06-1.294-.112-.257-.031-.513-.062-.768-.105-.058.037-.12.069-.179.105-.795.48-1.645.874-2.538,1.155-1.148.361-2.347.539-3.546.539-.048,0-.095-.004-.143-.004-.547-.006-1.095-.052-1.637-.132-1.239-.184-2.452-.554-3.579-1.117-.064-.032-.125-.068-.187-.1-.584.097-1.175.173-1.769.22-.428.034-.85.05-1.265.05-1.452,0-2.81-.21-4.031-.611h-26.547v-63.418c0-22.511,18.314-40.824,40.824-40.824s40.825,18.314,40.825,40.824v63.418Z"/>
        <path class="cls-1" d="m63.625,69.643c-.027.158-.051.316-.072.474-.015.116-.03.232-.041.349-.027.283-.041.567-.045.852-.017,1.121.138,2.253.451,3.338.867-1.912,2.043-3.678,3.501-5.186.006-.006.012-.013.018-.019.076-.078.155-.155.232-.233-.141-.107-.281-.21-.425-.325-.114-.091-.228-.184-.343-.281-.156-.131-.312-.267-.47-.406-.084-.075-.168-.149-.253-.227-.013-.012-.024-.024-.037-.036-.082-.076-.158-.155-.236-.233-.439-.436-.82-.901-1.15-1.384-.386.739-.692,1.52-.909,2.322-.089.329-.162.661-.22.995Z"/>
        <path class="cls-1" d="m64.73,52.365c.774-2.168,2.177-4.111,4.045-5.466.084-.061.167-.122.252-.181.276-.2.583-.379.903-.55,1.738-.931,3.911-1.6,4.159-3.687.043-.668-.187-1.425-.39-2.258-.233-.934-.319-1.884-.28-2.822-.263.171-2.434,1.502-3.138,1.992-.269.187-.528.369-.774.544-.117.331-.214.669-.285,1.013-.071.072-.148.139-.216.213-.448.333-.846.707-1.204,1.11-1.707,1.92-2.46,4.551-2.804,7.143-.126.976-.212,1.961-.269,2.949Z"/>
        <path class="cls-1" d="m82.153,51.062c.068-.003.133-.006.201-.009,3.058-1.276,5.158-4.325,7.248-8.081.499-.897.998-1.833,1.509-2.796.252-.31.462-.649.607-1.022.04-.104.073-.208.104-.314.437-.818.884-1.64,1.346-2.462,1.053-1.871,2.194-3.737,3.533-5.531,1.118-1.498,2.306-2.578,3.553-3.237-.371-.182-3.009.141-4.202.347-.306.053-.612.111-.918.17-.09.018-.18.035-.27.053-.8.54-1.594,1.219-2.415,2.071-.256.265-.513.542-.776.842-2.5,2.855-4.457,6.233-6.35,9.499l-.43.741c-2.118,3.646-4.262,7.159-7.127,10.082.942-.122,1.942-.221,3.011-.287.447-.028.904-.051,1.375-.068Z"/>
        <path class="cls-1" d="m73.258,52.309c.616-.171,1.27-.33,1.967-.472.096-.02.196-.038.293-.057.406-.352.805-.725,1.195-1.116,2.832-2.844,4.96-6.341,7.07-9.974l.429-.74c1.924-3.32,3.914-6.753,6.495-9.701.446-.509.883-.97,1.316-1.389.003-.005.005-.009.008-.014-2.611.468-9.568,3.512-10.397,3.908-.323,1.187-.542,2.423-.765,3.703-.349,2-.71,4.067-1.528,5.988-.842,1.977-2.115,3.694-3.347,5.355l-3.37,4.544-.145.195c.058-.018.113-.037.172-.055.197-.06.402-.118.607-.175Z"/>
        <path class="cls-1" d="m95.763,16.527c-.865,2.541-2.761,4.691-5.377,5.724-2.638,1.041-5.454.729-7.735-.603-.662,2.984-2.703,5.587-5.667,6.757-2.847,1.123-5.901.67-8.266-.94-.501,3.241-2.613,6.132-5.782,7.382-.402.159-.809.284-1.217.381,1.031.621,2.181,1.47,3.343,2.625,1.414-1.024,3.288-2.316,5.515-3.703,1.609-1.003,3.402-2.056,5.343-3.095.009-.005.017-.009.026-.014,1.192-.638,2.481-1.29,3.848-1.934.298-.14.599-.281.905-.42.292-.133.595-.265.894-.396.172-.076.34-.153.514-.228.144-.062.291-.122.437-.184.377-.16.754-.321,1.14-.477.367-.149.738-.296,1.113-.441.605-.234,1.222-.461,1.845-.682.452-.16.905-.319,1.365-.472,4.495-1.49,9.399-2.576,14.388-2.747.185-2.256.711-4.076,1.251-5.414-3.604,1.222-6.059.58-7.881-1.117Z"/>
        <path class="cls-1" d="m72.989,46.012c-.914.572-1.92.966-2.822,1.504-.143.085-.283.173-.42.267-.301.205-.585.433-.859.67-1.242,1.076-2.202,2.464-2.812,3.993-.124.31-.237.624-.331.944-.302.715-.524,1.461-.667,2.225-.105.562-.166,1.133-.184,1.71.973-1.29,2.619-2.768,5.378-3.97l2.106-2.84,2.582-3.482c1.187-1.601,2.415-3.256,3.196-5.092.76-1.785,1.108-3.778,1.445-5.706.151-.863.305-1.736.496-2.606-.292.177-3.866,1.963-5.301,2.833-.058.382-.091.769-.097,1.157-.082,1.562.544,2.989.649,4.371.081,1.068-.148,2.109-1.254,3.167-.341.335-.715.611-1.105.855Z"/>
        <path class="cls-1" d="m67.099,40.219c.376-.284.808-.603,1.288-.949.174-.126.354-.254.541-.387.507-.36,1.062-.745,1.659-1.147.675-.455,1.404-.933,2.184-1.426.275-.174.558-.35.845-.527.251-.155.507-.311.767-.468.267-.161.544-.323.82-.485,1.288-.755,2.668-1.521,4.132-2.271.328-.168.66-.335.996-.5.063-.031.128-.061.191-.092.529-.259,1.068-.515,1.614-.766.879-.405,1.778-.8,2.699-1.176.918-.375,1.855-.733,2.808-1.07,1.185-.419,2.394-.807,3.623-1.149.577-.16,1.16-.308,1.745-.448.113-.027.225-.055.338-.081.273-.063.547-.122.821-.18.388-.083.778-.16,1.169-.232,1.581-.293,3.182-.5,4.792-.603.091-.006.181-.015.272-.02.655-.037,1.311-.063,1.967-.064-.042-.662-.057-1.3-.043-1.908-3.843.139-7.657.837-11.314,1.875-.226.064-.451.132-.676.2-.057.017-.116.034-.173.051-.245.073-.488.151-.732.228-.455.143-.908.29-1.357.442-1.597.54-3.154,1.136-4.662,1.769-.692.291-1.374.59-2.045.895-.165.075-.332.149-.496.225-.38.176-.756.354-1.128.533-.997.48-1.962.971-2.896,1.464-.321.17-.639.34-.952.511-.068.037-.138.074-.205.111-.415.227-.82.454-1.219.68-.332.188-.66.376-.981.563-.586.342-1.153.68-1.699,1.014-.473.289-.927.573-1.369.853-.683.433-1.333.855-1.936,1.258-.976.652-1.847,1.258-2.592,1.793.366.411.729.86,1.088,1.337.038.051.077.097.115.149Z"/>
      </g>
      <g>
        <g>
          <path class="cls-1" d="m0,166.412l1.682-12.077h.361c1.322,8.532,6.489,13.699,13.82,13.699,4.867,0,8.051-2.704,8.051-7.33,0-3.425-1.803-5.468-6.309-7.391l-7.631-3.425c-6.009-2.704-9.193-6.609-9.193-12.257,0-6.73,4.867-12.197,14.781-12.197,4.086,0,9.013,1.021,12.918,3.124l-1.983,11.236h-.361c-1.382-8.412-5.828-12.558-12.498-12.558-5.167,0-7.991,2.584-7.991,6.309,0,3.365,1.742,5.167,6.549,7.33l8.232,3.845c6.189,2.764,8.652,6.249,8.652,11.657,0,7.991-5.828,13.519-15.021,13.519-5.348,0-10.214-1.322-14.06-3.485Z"/>
          <path class="cls-1" d="m55.458,132.464v29.983c0,3.725,1.081,5.348,4.326,5.828v.421h-16.583v-.421c3.244-.481,4.326-1.562,4.326-5.828v-29.983c0-3.665-1.022-4.867-4.326-5.408v-.421h16.583v.421c-3.305.541-4.326,1.983-4.326,5.408Z"/>
          <path class="cls-1" d="m74.325,166.412l1.682-12.077h.361c1.322,8.532,6.489,13.699,13.82,13.699,4.867,0,8.051-2.704,8.051-7.33,0-3.425-1.803-5.468-6.309-7.391l-7.631-3.425c-6.009-2.704-9.193-6.609-9.193-12.257,0-6.73,4.867-12.197,14.781-12.197,4.086,0,9.013,1.021,12.918,3.124l-1.983,11.236h-.361c-1.382-8.412-5.828-12.558-12.498-12.558-5.167,0-7.991,2.584-7.991,6.309,0,3.365,1.742,5.167,6.549,7.33l8.232,3.845c6.189,2.764,8.652,6.249,8.652,11.657,0,7.991-5.828,13.519-15.022,13.519-5.348,0-10.214-1.322-14.06-3.485Z"/>
          <path class="cls-1" d="m118.607,166.412l1.682-12.077h.361c1.322,8.532,6.489,13.699,13.82,13.699,4.867,0,8.051-2.704,8.051-7.33,0-3.425-1.803-5.468-6.309-7.391l-7.631-3.425c-6.009-2.704-9.193-6.609-9.193-12.257,0-6.73,4.867-12.197,14.781-12.197,4.086,0,9.013,1.021,12.918,3.124l-1.983,11.236h-.361c-1.382-8.412-5.828-12.558-12.498-12.558-5.167,0-7.991,2.584-7.991,6.309,0,3.365,1.742,5.167,6.549,7.33l8.232,3.845c6.189,2.764,8.652,6.249,8.652,11.657,0,7.991-5.828,13.519-15.022,13.519-5.348,0-10.214-1.322-14.06-3.485Z"/>
          <path class="cls-1" d="m174.065,132.464v29.983c0,3.725,1.081,5.348,4.326,5.828v.421h-16.583v-.421c3.245-.481,4.326-1.562,4.326-5.828v-29.983c0-3.665-1.021-4.867-4.326-5.408v-.421h16.583v.421c-3.305.541-4.326,1.983-4.326,5.408Z"/>
        </g>
        <g>
          <path class="cls-1" d="m18.565,181.001c-.054.323-.15.611-.289.864-.139.253-.309.464-.511.633-.202.169-.433.297-.695.384-.261.087-.54.13-.836.13-.227,0-.442-.026-.643-.078-.202-.052-.395-.132-.581-.24s-.35-.233-.493-.376c-.203-.209-.35-.432-.439-.668-.09-.236-.145-.492-.166-.769-.021-.276-.032-.673-.032-1.19,0-.397.006-.713.016-.946.01-.233.034-.447.072-.641.037-.194.099-.376.184-.544.085-.169.207-.334.365-.495.227-.227.486-.4.776-.518.29-.118.604-.177.941-.177.613,0,1.126.173,1.54.52.414.347.678.844.791,1.49h-1.013c-.078-.343-.229-.615-.455-.816-.226-.201-.513-.302-.863-.302-.191,0-.371.034-.54.103s-.312.166-.428.291c-.087.096-.154.192-.202.289-.048.097-.087.225-.117.385-.03.16-.05.339-.061.539s-.016.474-.016.823c0,.346.005.618.016.816.011.198.031.378.061.539s.069.289.117.383c.048.094.115.193.202.298.117.122.259.218.428.289s.349.105.54.105c.236,0,.444-.046.623-.139.179-.092.329-.224.448-.394.119-.17.205-.366.255-.586h1.004Z"/>
          <path class="cls-1" d="m24.575,182.958h-4.146v-6.535h1v5.643h3.147v.892Z"/>
          <path class="cls-1" d="m27.865,174.298l-1.022,1.488h-.704l.686-1.488h1.04Zm-.614,8.66h-1v-6.535h1v6.535Z"/>
          <path class="cls-1" d="m34.427,182.958h-.91l-3.017-4.599v4.599h-1v-6.535h.914l3.021,4.59v-4.59h.991v6.535Z"/>
          <path class="cls-1" d="m37.681,182.958h-1v-6.535h1v6.535Z"/>
          <path class="cls-1" d="m44.382,181.001c-.054.323-.15.611-.289.864-.139.253-.309.464-.511.633-.202.169-.433.297-.695.384s-.54.13-.836.13c-.227,0-.442-.026-.643-.078s-.395-.132-.581-.24c-.185-.108-.35-.233-.493-.376-.203-.209-.35-.432-.439-.668-.09-.236-.145-.492-.166-.769-.021-.276-.032-.673-.032-1.19,0-.397.005-.713.016-.946.01-.233.034-.447.072-.641.037-.194.099-.376.184-.544s.207-.334.365-.495c.227-.227.485-.4.775-.518.29-.118.604-.177.941-.177.613,0,1.126.173,1.54.52.414.347.678.844.791,1.49h-1.013c-.078-.343-.229-.615-.455-.816-.226-.201-.513-.302-.863-.302-.191,0-.371.034-.54.103-.169.069-.311.166-.428.291-.087.096-.154.192-.202.289-.048.097-.087.225-.117.385-.03.16-.05.339-.061.539s-.016.474-.016.823c0,.346.005.618.016.816.011.198.031.378.061.539.03.161.069.289.117.383.048.094.115.193.202.298.117.122.259.218.428.289.169.07.349.105.54.105.236,0,.444-.046.623-.139.179-.092.329-.224.448-.394.12-.17.205-.366.256-.586h1.004Z"/>
          <path class="cls-1" d="m51.065,182.958h-1.057l-.448-1.313h-2.58l-.448,1.313h-1.057l2.396-6.535h.797l2.396,6.535Zm-1.783-2.156l-.99-2.9-1.017,2.9h2.007Z"/>
          <path class="cls-1" d="m59.943,179.645v.327c0,.353-.014.66-.04.923-.027.263-.089.521-.186.775-.097.254-.243.478-.438.672-.41.409-.974.614-1.692.614h-2.297v-6.535h2.297c.718,0,1.282.205,1.692.614.194.194.34.412.438.654.097.242.159.489.186.74.027.251.04.545.04.883v.332Zm-.991.002c0-.376-.006-.667-.018-.871s-.044-.396-.096-.576-.131-.327-.235-.443c-.269-.296-.639-.443-1.112-.443h-1.201v4.751h1.201c.475,0,.846-.146,1.112-.439.156-.17.253-.401.292-.694.039-.293.058-.721.058-1.285Z"/>
          <path class="cls-1" d="m66.138,182.958h-4.182v-6.535h4.182v.892h-3.183v1.905h2.716v.883h-2.716v1.963h3.183v.892Z"/>
          <path class="cls-1" d="m76.572,182.958h-1v-4.37l-1.5,3.187h-.734l-1.54-3.187v4.37h-1v-6.535h1l1.907,4.066,1.867-4.066h1v6.535Z"/>
          <path class="cls-1" d="m82.995,182.958h-4.182v-6.535h4.182v.892h-3.183v1.905h2.716v.883h-2.716v1.963h3.183v.892Z"/>
          <path class="cls-1" d="m89.552,179.645v.327c0,.353-.014.66-.041.923s-.089.521-.186.775-.243.478-.437.672c-.41.409-.974.614-1.692.614h-2.298v-6.535h2.298c.718,0,1.282.205,1.692.614.194.194.34.412.437.654.097.242.159.489.186.74s.041.545.041.883v.332Zm-.991.002c0-.376-.006-.667-.018-.871-.012-.204-.044-.396-.096-.576-.053-.179-.131-.327-.235-.443-.269-.296-.639-.443-1.112-.443h-1.201v4.751h1.201c.475,0,.846-.146,1.112-.439.155-.17.252-.401.292-.694.039-.293.058-.721.058-1.285Z"/>
          <path class="cls-1" d="m92.564,182.958h-1v-6.535h1v6.535Z"/>
          <path class="cls-1" d="m99.265,181.001c-.054.323-.15.611-.289.864-.139.253-.309.464-.511.633-.202.169-.433.297-.695.384-.261.087-.54.13-.836.13-.227,0-.442-.026-.643-.078-.202-.052-.395-.132-.581-.24s-.35-.233-.493-.376c-.203-.209-.35-.432-.439-.668-.09-.236-.145-.492-.166-.769-.021-.276-.032-.673-.032-1.19,0-.397.006-.713.016-.946.01-.233.034-.447.072-.641.037-.194.099-.376.184-.544.085-.169.207-.334.365-.495.227-.227.486-.4.776-.518.29-.118.604-.177.941-.177.613,0,1.126.173,1.54.52.414.347.678.844.791,1.49h-1.013c-.078-.343-.229-.615-.455-.816-.226-.201-.513-.302-.863-.302-.191,0-.371.034-.54.103s-.312.166-.428.291c-.087.096-.154.192-.202.289-.048.097-.087.225-.117.385-.03.16-.05.339-.061.539s-.016.474-.016.823c0,.346.005.618.016.816.011.198.031.378.061.539s.069.289.117.383c.048.094.115.193.202.298.117.122.259.218.428.289s.349.105.54.105c.236,0,.444-.046.623-.139.179-.092.329-.224.448-.394.119-.17.205-.366.255-.586h1.004Z"/>
          <path class="cls-1" d="m102.129,182.958h-1v-6.535h1v6.535Z"/>
          <path class="cls-1" d="m109.305,182.958h-.91l-3.017-4.599v4.599h-1v-6.535h.914l3.021,4.59v-4.59h.991v6.535Z"/>
          <path class="cls-1" d="m116.377,182.958h-1.057l-.448-1.313h-2.58l-.448,1.313h-1.057l2.396-6.535h.797l2.396,6.535Zm-1.783-2.156l-.99-2.9-1.017,2.9h2.007Z"/>
          <path class="cls-1" d="m124.785,182.958h-4.182v-6.535h4.182v.892h-3.183v1.905h2.716v.883h-2.716v1.963h3.183v.892Z"/>
          <path class="cls-1" d="m130.782,181.093c0,.29-.057.555-.17.796-.114.24-.277.445-.491.614s-.462.296-.746.381c-.284.085-.598.128-.941.128-.499,0-.933-.067-1.302-.2-.369-.134-.708-.355-1.015-.665l.664-.655c.146.15.307.272.482.368.175.096.361.163.558.202.197.039.408.058.632.058.421,0,.751-.088.99-.264.239-.176.359-.422.359-.738,0-.295-.087-.52-.26-.676-.078-.078-.168-.136-.271-.177s-.25-.074-.441-.101l-.771-.108c-.532-.075-.946-.249-1.242-.524-.317-.296-.475-.711-.475-1.246,0-.379.088-.714.264-1.004.176-.29.429-.514.757-.674s.716-.24,1.161-.24c.439,0,.819.059,1.139.178s.617.307.892.566l-.636.628c-.132-.128-.272-.229-.421-.303-.15-.073-.305-.125-.466-.157-.161-.031-.339-.047-.533-.047-.248,0-.461.043-.641.13s-.316.206-.41.36-.141.329-.141.526c0,.259.082.462.246.609.081.069.187.131.318.186.132.055.271.093.417.114l.744.112c.299.045.543.105.733.181s.352.177.486.302c.356.311.533.758.533,1.34Z"/>
          <path class="cls-1" d="m136.672,177.314h-1.797v5.643h-.991v-5.643h-1.802v-.892h4.59v.892Z"/>
          <path class="cls-1" d="m142.53,182.958h-4.182v-6.535h4.182v.892h-3.183v1.905h2.716v.883h-2.716v1.963h3.183v.892Zm-.924-8.66l-1.022,1.488h-.704l.686-1.488h1.04Z"/>
          <path class="cls-1" d="m148.451,177.314h-1.797v5.643h-.991v-5.643h-1.802v-.892h4.59v.892Z"/>
          <path class="cls-1" d="m151.126,182.958h-1v-6.535h1v6.535Z"/>
          <path class="cls-1" d="m157.827,181.001c-.054.323-.15.611-.289.864-.139.253-.309.464-.511.633-.202.169-.433.297-.695.384-.261.087-.54.13-.836.13-.227,0-.442-.026-.643-.078-.202-.052-.395-.132-.581-.24s-.35-.233-.493-.376c-.203-.209-.35-.432-.439-.668-.09-.236-.145-.492-.166-.769-.021-.276-.032-.673-.032-1.19,0-.397.006-.713.016-.946.01-.233.034-.447.072-.641.037-.194.099-.376.184-.544.085-.169.207-.334.365-.495.227-.227.486-.4.776-.518.29-.118.604-.177.941-.177.613,0,1.126.173,1.54.52.414.347.678.844.791,1.49h-1.013c-.078-.343-.229-.615-.455-.816-.226-.201-.513-.302-.863-.302-.191,0-.371.034-.54.103s-.312.166-.428.291c-.087.096-.154.192-.202.289-.048.097-.087.225-.117.385-.03.16-.05.339-.061.539s-.016.474-.016.823c0,.346.005.618.016.816.011.198.031.378.061.539s.069.289.117.383c.048.094.115.193.202.298.117.122.259.218.428.289s.349.105.54.105c.236,0,.444-.046.623-.139.179-.092.329-.224.448-.394.119-.17.205-.366.255-.586h1.004Z"/>
          <path class="cls-1" d="m164.51,182.958h-1.057l-.448-1.313h-2.58l-.448,1.313h-1.057l2.396-6.535h.797l2.396,6.535Zm-1.783-2.156l-.99-2.9-1.017,2.9h2.007Z"/>
        </g>
      </g>
    </g>
  </g>
</svg>