<?xml version="1.0" encoding="utf-8"?>
<!-- Generator: Adobe Illustrator 25.2.1, SVG Export Plug-In . SVG Version: 6.00 Build 0)  -->
<svg version="1.1" id="Capa_2_1_" xmlns="http://www.w3.org/2000/svg" xmlns:xlink="http://www.w3.org/1999/xlink" x="0px" y="0px"
	 viewBox="0 0 90.6 113.2" style="enable-background:new 0 0 90.6 113.2;" xml:space="preserve">
<style type="text/css">
	.st0{fill:#FFFFFF;}
</style>
<g id="Capa_1-2">
	<g>
		<g>
			<path class="st0" d="M29.3,68.7C29.3,68.7,29.3,68.7,29.3,68.7C29.3,68.7,29.3,68.7,29.3,68.7l0.9,0.1l4.8,0.7
				c0.2,0,0.4,0.1,0.6,0.1c0.4,0.1,0.9,0.1,1.3,0.2c3.2,0.4,6.1,0.5,8.6-0.8c1.2-0.6,2.3-1.6,3.1-2.8c0,0,0,0,0,0c0,0,0,0,0-0.1
				c0.2-0.3,0.3-0.6,0.5-0.9c0.1-0.1,0.1-0.3,0.2-0.5c-0.1,0-0.2,0.1-0.3,0.1c-0.1,0-0.1,0-0.2,0.1c-0.3,0.1-0.7,0.2-1.1,0.3
				c0,0,0,0,0,0c0,0,0,0,0,0c-0.1,0-0.2,0.1-0.3,0.1c-0.7,0.2-1.6,0.4-2.6,0.5c-1.5,0.2-3.2,0.4-5.3,0.4c-0.4,0-0.7,0-1.1,0H38
				c0,0,0,0,0,0c-1,0-1.9,0-2.9,0c-0.1,0-0.2,0-0.4,0c-0.3,0-0.6,0-0.9,0.1c0,0,0,0,0,0c-0.1,0-0.3,0-0.4,0
				c-1.4,0.2-2.6,0.5-3.6,1.1c-0.4,0.3-0.7,0.6-1,0.9c0,0,0,0,0,0L29.3,68.7L29.3,68.7z"/>
			<path class="st0" d="M33.6,65.3c0.1,0,0.2,0,0.2,0c0.3,0,0.7-0.1,1.1-0.1c0.1,0,0.2,0,0.2,0c0.3,0,0.6,0,0.9,0c0.7,0,1.3,0,2,0
				h0.1c0,0,0.1,0,0.1,0c0.5,0,0.9,0,1.3,0c2.8-0.1,5.1-0.4,6.8-0.8c0,0,0,0,0,0c0.4-0.1,0.8-0.2,1.1-0.3c0.2-0.1,0.5-0.1,0.7-0.2
				c0,0,0,0,0,0c0.2-0.1,0.4-0.1,0.6-0.2c0.4-0.1,0.7-0.2,0.9-0.3c0.4-0.2,0.6-0.3,0.6-0.3l0,0c0.1,0,0.1-0.1,0.2-0.1
				c0.2-0.1,0.4-0.2,0.6-0.3c0.4-0.2,0.8-0.4,1.2-0.7c5-2.9,7.5-6.1,8.9-9.3c0.1-0.3,0.3-0.6,0.4-0.9c0.6-1.6,0.9-3.1,1.1-4.5
				c-1,1.4-2.4,3.2-4.3,4.9c-2.9,2.7-7.5,5.8-13.7,6.7c-0.5,0.1-1,0.1-1.6,0.2c-1.1,0.1-2.2,0.1-3.3,0.1c0,0,0,0-0.1,0
				c-0.1,0-0.3,0-0.4,0c-0.4,0-0.9,0-1.3,0c-0.2,0-0.4,0-0.6,0c-1.3,0.1-2.5,0.2-3.6,0.5c-0.4,0.1-0.8,0.2-1.3,0.3
				c-0.1,0-0.1,0-0.2,0.1c-1.7,0.6-3.1,1.4-4.4,2.5c-0.1,0.1-0.2,0.2-0.3,0.3c-1.3,1.3-2.2,2.7-2.7,4c-0.1,0.3-0.2,0.5-0.3,0.8
				c0.2,0.2,0.4,0.3,0.6,0.5c0.1,0.1,0.2,0.2,0.3,0.2c0,0,0.1,0,0.1,0c0.3,0,0.6,0.1,0.9,0.1c0.2,0,0.5,0.1,0.7,0.1c0,0,0,0,0,0
				c0,0,0-0.1,0.1-0.1c0.1-0.2,0.3-0.4,0.4-0.6c0,0,0-0.1,0.1-0.1c0.1-0.1,0.2-0.3,0.4-0.4c0.3-0.3,0.7-0.6,1-0.8
				C30.5,65.8,32,65.4,33.6,65.3C33.6,65.3,33.6,65.3,33.6,65.3L33.6,65.3z"/>
			<path class="st0" d="M56.3,71.8c-2.4-1.2-4.6-2.8-6.7-4.5c-0.1-0.1-0.1-0.1-0.2-0.2c-0.9,1.3-2.1,2.4-3.5,3.1
				c-1.8,0.9-3.6,1.2-5.6,1.2c-1.2,0-2.5-0.1-3.8-0.3c-0.1,0.4-0.3,0.9-0.5,1.4c-1.6,3.4-4.6,6-8,7.3c-0.2,2.6-0.9,5.2-2,7.5
				c0.6,2.2,0.9,4.5,0.7,6.8c1.2,1.5,2.2,3.1,2.9,4.8c2.3,0.5,4.7,1.6,6.8,3.3c0.4,0.3,0.8,0.7,1.2,1c1.7-0.4,3.4-0.8,5.2-0.9
				c0.9-0.1,2,0,3.2,0.2c0.3,0,0.6,0.1,0.9,0.2c0.4,0.1,0.7,0.2,1.1,0.3c0.7-0.9,1.7-1.7,2.8-2.3c2.3-1.2,5-1.7,7.6-1.2
				c1.2,0.2,2.4,0.6,3.5,1.2c0,0,0,0,0,0c0-0.1,0-0.1,0-0.1c0.1-0.6,0-1.3-0.2-2c-0.6-1.8-2.4-3.3-5.3-4.5c-2-0.8-3.8-1.8-5.3-2.7
				c-0.6-0.4-1.2-0.8-1.7-1.2c-0.2-0.6-0.3-1.3-0.5-2c-0.4-2.1-0.6-4.5-0.4-7C49.2,75.9,53.4,73.1,56.3,71.8L56.3,71.8z"/>
			<path class="st0" d="M66.9,31.1c-3.5-0.4-6.8,4.6-10.3,9.9c-2.1,3.2-4.3,6.5-6.7,9c4.9-1.2,8.1-3.2,10.2-5.1
				c2.1-1.8,3.3-3.7,3.9-4.8c0.2-0.5,0.3-0.9,0.6-1.3c1.2-2.1,2.5-3.3,3.9-3.3c0.3,0,0.6,0,0.9,0.1c0.4-0.9,0.7-2.2,0.3-3.1
				C69.2,31.7,68.3,31.3,66.9,31.1L66.9,31.1z"/>
			<path class="st0" d="M27.3,78.7c0.3-0.1,0.6-0.2,0.8-0.3c2.9-1.2,5.5-3.6,6.8-6.4c0.2-0.4,0.3-0.7,0.4-1c-0.2,0-0.4-0.1-0.6-0.1
				l-4.4-0.7c0.1,0.7,0,1.5-0.1,2.2c-0.3,1.8-1,3.6-2.2,5.3C27.8,78,27.6,78.4,27.3,78.7L27.3,78.7z"/>
			<path class="st0" d="M72.4,65.7c-0.1,0-0.2,0-0.2,0c-0.3,0-0.6,0-1-0.1c-0.8,0-1.6,0-2.3,0c-0.1,0-0.2,0-0.3,0
				c0.5,0.4,1.3,0.8,2,1.1c0.3,0.1,0.6,0.2,0.9,0.3c0.2,0,0.3,0,0.5,0.1c0.6,0,1.1-0.3,1.3-0.9c0.1-0.2,0-0.3-0.1-0.3
				C73,65.8,72.7,65.8,72.4,65.7L72.4,65.7z"/>
			<path class="st0" d="M61.9,102.2c-1.1-0.7-2.4-1.1-3.7-1.4c-2.3-0.4-4.7,0-6.8,1.1c-0.9,0.5-1.6,1.1-2.2,1.7
				c0.3,0.2,0.7,0.4,1,0.6l0,0l-0.7,1c-0.3-0.2-0.7-0.4-1-0.6c-0.4-0.2-0.8-0.4-1.2-0.5c-0.3-0.1-0.5-0.2-0.8-0.2
				c-1.3-0.3-2.6-0.3-3.6-0.3c-1.4,0.1-2.8,0.4-4.2,0.7c-0.5,0.1-1,0.2-1.4,0.4c-0.5,0.1-0.9,0.3-1.4,0.4l-0.4-1.2
				c0.2-0.1,0.4-0.1,0.6-0.2c-0.2-0.1-0.3-0.3-0.5-0.4c-1.7-1.3-3.5-2.3-5.4-2.8c-0.5-0.1-1-0.3-1.5-0.3c-1-0.2-2-0.2-3-0.1
				l-0.2-1.3c0.8-0.1,1.7-0.1,2.5,0c-0.6-1.2-1.3-2.3-2.1-3.3c-0.2-0.3-0.4-0.6-0.7-0.8c-0.5-0.7-1.1-1.3-1.8-1.9
				c-0.4-0.4-0.8-0.7-1.2-1c-0.7-0.6-1.5-1.1-2.3-1.6l0.7-1.1c0.6,0.4,1.2,0.7,1.7,1.2c0,0,0.1,0,0.1,0.1c0.5-0.6,0.9-1.2,1.3-1.8
				c0.2-0.4,0.5-0.8,0.7-1.2c0.2-0.3,0.3-0.6,0.5-1c0.9-1.9,1.4-3.9,1.6-6c-0.4,0.1-0.7,0.2-1.1,0.2c-0.7,0.7-1.4,1.3-2.1,1.8
				c-0.1-0.5-0.2-1-0.3-1.4c0.6-0.5,1.2-1,1.7-1.5l0-0.1c0,0,0.1,0,0.1,0c0.2-0.2,0.5-0.5,0.7-0.7c0.4-0.4,0.7-0.8,1-1.3
				c0.4-0.6,0.8-1.2,1.1-1.8c0.6-1.1,0.9-2.2,1.1-3.3c0.1-0.8,0.1-1.5,0-2.2l-0.5-0.1c0,0-0.1,0-0.1,0c-0.1,0-0.3,0-0.4-0.1
				c0,0,0,0,0,0c-0.3,0-0.6-0.1-0.9-0.1c-0.1,0-0.2,0-0.4,0c0,0,0,0,0,0c-0.1,0-0.2,0-0.3,0c-0.1,0-0.1,0-0.2,0
				c-0.1,0.1-0.1,0.1-0.2,0.2c0,0,0,0,0,0c-0.1,0.1-0.1,0.1-0.2,0.2c0,0,0,0,0,0c-0.1,0.1-0.2,0.2-0.4,0.4c-1.7,1.7-2.9,3.8-3.8,6.1
				c-0.2,0.6-0.4,1.1-0.5,1.7c0,0.2-0.1,0.4-0.1,0.6c-0.1,0.3-0.1,0.6-0.2,0.9c-0.2,1.1-0.3,2.3-0.3,3.4c0,0.4,0,0.8,0.1,1.2
				c0.1,0.9,0.2,1.7,0.4,2.5L19.8,87c-0.5-1.8-0.6-3.7-0.5-5.5c-0.3,0.5-0.5,1-0.7,1.5c-0.1,0.4-0.3,0.8-0.4,1.2
				c-0.4,1.5-0.4,3.1-0.1,4.7c0.2,0.8,0.4,1.5,0.7,2.2c0.3,0.6,0.6,1.1,0.9,1.6c0.6,0.9,1.4,1.8,2.2,2.5c0.4,0.3,0.7,0.6,1.1,0.9
				c0.5,0.4,1.1,0.7,1.7,1l-0.6,1.2c-0.5-0.2-1-0.5-1.5-0.8c-0.4-0.2-0.8-0.5-1.1-0.8c-0.7-0.6-1.4-1.2-2-1.9c0.1,1.8,0.6,3.5,1.6,5
				c0.7,1.1,1.7,2.1,2.8,2.9c0.8,0.5,1.6,1,2.5,1.3c0.3,0.1,0.7,0.2,1.1,0.3c0.8,0.2,1.6,0.2,2.5,0.2c0.4,0,0.9,0,1.3,0
				c1.1-0.1,2.2-0.2,3.3-0.4l0.2,1.3c-1.5,0.2-3.1,0.4-4.7,0.4c-0.7,0-1.4,0-2.1-0.1c0.6,0.5,1.2,1,1.8,1.3c0,0,0.1,0,0.1,0.1
				c1.7,0.9,3.8,1.2,6.1,1.1c0,0,0.1,0,0.1,0c0.7-0.1,1.3-0.2,2-0.3c0.5-0.1,1-0.2,1.5-0.3c0.5-0.1,0.9-0.2,1.4-0.3
				c0.2-0.1,0.5-0.1,0.7-0.2c0.3-0.1,0.5-0.1,0.8-0.2l0.1,0.2l0.3,1c-0.3,0.1-0.7,0.2-1,0.3c-0.4,0.1-0.9,0.2-1.3,0.4
				c-0.1,0-0.2,0.1-0.3,0.1c0.1,0,0.3,0.1,0.4,0.1c0,0,0.1,0,0.1,0c0.6,0.2,1.2,0.3,1.8,0.3c1.3,0.1,2.7,0,4-0.4
				c0.1,0,0.2,0,0.3-0.1c0.4-0.1,0.8-0.3,1.2-0.5c0.6-0.3,1.1-0.6,1.6-0.9c0.2-0.1,0.3-0.3,0.5-0.4c0.2-0.2,0.5-0.4,0.7-0.6
				c0.3-0.3,0.6-0.6,0.9-0.9c0.5-0.6,0.9-1.2,1.2-1.8l1.1,0.6c-0.4,0.8-0.9,1.5-1.5,2.2c-0.2,0.2-0.3,0.4-0.5,0.5
				c-0.1,0.1-0.3,0.3-0.4,0.4c-0.1,0.1-0.2,0.2-0.3,0.2c0.2,0,0.3,0,0.5,0c0.1,0,0.1,0,0.2,0c0.5,0,0.9,0,1.3,0
				c1.2-0.1,2.4-0.3,3.4-0.7c1.1-0.4,2.1-1,2.9-1.7C60.6,104.4,61.3,103.3,61.9,102.2L61.9,102.2z"/>
			<path class="st0" d="M59.7,28.2c-0.1,0-0.2,0-0.3,0.1c-1.6,0.3-3.1,1.5-4.6,3.4c-1.8,2.5-3.3,5.1-4.7,7.7
				c-0.2,0.4-0.5,0.9-0.7,1.3c0,0.1-0.1,0.2-0.1,0.3C47,45.1,45,48.8,42.1,51c2-0.1,3.8-0.3,5.4-0.5c3-2.5,5.6-6.4,8.1-10.2
				c3-4.6,5.9-8.9,9.2-10.1c-0.9-0.8-2.6-2-4.5-2C60.1,28.1,59.9,28.1,59.7,28.2L59.7,28.2z"/>
			<path class="st0" d="M20.3,76.5c-0.4-1-0.7-2.1-0.9-3.2c-0.1,0.3-0.2,0.5-0.3,0.9c-0.6,2.1-0.8,4.2-0.8,6.4
				c0.4-0.6,0.8-1.1,1.3-1.6C19.8,78.1,20,77.3,20.3,76.5z"/>
			<path class="st0" d="M74.4,63.8c0-0.2-0.2-0.4-0.4-0.5c-0.2-0.1-0.3-0.1-0.5-0.2C73.3,63.1,73,63,72.7,63c-1.6,0-3.4,0.9-4.4,1.5
				c0.2,0,0.4,0.1,0.7,0.1c0.7,0.1,1.6,0.2,2.8,0.1c0.2,0,0.5,0,0.7,0c0,0,0,0,0,0c0.1,0,0.2,0,0.3,0c0.8-0.1,1.2-0.2,1.4-0.4
				C74.4,64.2,74.4,63.9,74.4,63.8L74.4,63.8z"/>
			<path class="st0" d="M69.4,37c-0.2-0.1-0.5-0.2-0.9-0.2c-0.9,0-1.9,1-2.8,2.6c-0.1,0.2-0.2,0.6-0.5,1.2c-0.4,1.3-0.6,2.7-0.8,4.4
				c0,0.1,0,0.3,0,0.4c1-0.3,2-0.4,3.1-0.4c0.8,0.1,1.6,0.3,2.4,0.7c0.3,0.2,0.5,0.5,0.3,0.9c-0.2,0.3-0.6,0.5-0.9,0.3
				c-1.4-1-3.2-1.1-4.9-0.9c-0.2,1.8-0.5,3.8-1.3,5.9c2.1,0.2,4.9,0.1,6.5-1.3l0.6,0.7c-1.4,1.3-3.6,1.6-5.6,1.6c-0.7,0-1.4,0-2-0.1
				c-1.5,3.7-4.6,7.6-11,11c-0.4,0.9-0.8,1.7-1.3,2.5c2.4,1.8,5,3.5,7.7,4.8c0.5,0.2,1,0.5,1.5,0.7c3.1,1.3,6.2,2.1,9.2,2
				c2,0,1.9-4.3,1.8-6.1c-1.9-0.7-3.4-2.1-3.5-2.2l-0.7-0.6l-0.1-0.1l0.2-0.1l0.5-0.4c0.1-0.1,3.1-2.4,6-2.3l0-1.9l0,0
				c0.3-0.3,0.8-0.7,1.2-1.2c0.4-0.4,0.8-0.7,1-1c0.6-0.5,0.8-1.4,0.3-2c-0.1-0.2-0.2-0.3-0.4-0.4l-0.1-0.1
				c-1.3-1.2-3.5-3.6-3.5-6.8c0-0.5,0-1.1,0.1-1.7C72.2,43,70.1,38.4,69.4,37L69.4,37z"/>
			<path class="st0" d="M21.6,61.6c0,0.2,0,0.5,0,0.7c0,0.1,0,0.2,0,0.2c0,0.2,0,0.4,0.1,0.6c0,0.2,0.1,0.4,0.2,0.7
				c0.1,0.3,0.2,0.5,0.3,0.8c0.1,0.2,0.2,0.4,0.3,0.6c0.3,0.5,0.7,1,1.1,1.5c0.3-0.8,0.7-1.6,1.2-2.4c0.2-0.4,0.5-0.7,0.7-1.1
				c0.4-0.5,0.8-0.9,1.2-1.3c1.4-1.3,3-2.3,5-3c0.1,0,0.2-0.1,0.3-0.1c0.4-0.1,0.8-0.3,1.3-0.4c0.9-0.2,1.8-0.4,2.8-0.5
				c1.1-0.1,2.3-0.1,3.5-0.1c0.1,0,0.2,0,0.3,0c0.4,0,0.9,0,1.3,0c10.8-0.1,17.4-7.1,20.3-11.1c0.1-0.1,0.1-0.1,0.2-0.2
				c0.9-1.2,1.4-2.1,1.5-2.4c0-0.2,0.1-0.4,0.1-0.6c-0.6,0.7-1.3,1.5-2.2,2.3c-3.3,2.9-9.4,6.4-20.1,6.5c-0.7,0-1.4,0-2.1,0.1
				c-0.5,0-0.9,0-1.4,0.1c-1.4,0.1-2.7,0.3-3.9,0.5c-0.1,0-0.3,0.1-0.4,0.1c-0.3,0.1-0.6,0.1-0.9,0.2c-0.6,0.1-1.1,0.3-1.7,0.4
				c-0.1,0-0.3,0.1-0.4,0.1c-0.1,0-0.3,0.1-0.4,0.1c-0.5,0.2-1.1,0.4-1.6,0.6c-0.8,0.3-1.5,0.7-2.2,1.1c-0.1,0.1-0.3,0.2-0.4,0.2
				c-0.7,0.5-1.3,1-1.9,1.5c-0.7,0.7-1.2,1.4-1.5,2.2c0,0.1-0.1,0.2-0.1,0.3c-0.1,0.2-0.1,0.4-0.2,0.6c-0.1,0.3-0.1,0.6-0.2,0.9
				C21.7,61.3,21.7,61.5,21.6,61.6L21.6,61.6z"/>
			<path class="st0" d="M45.3,6.4c-21.5,0-39,17.5-39,39v61.6h21.4c-0.7-0.6-1.3-1.2-1.9-1.9c-2.3-0.9-4.3-2.5-5.7-4.6
				c-1.4-2.2-2-4.8-1.7-7.4c-0.7-1.2-1.3-2.5-1.6-3.9c-0.5-2.1-0.3-4.3,0.4-6.3c-0.4-3-0.2-6.1,0.6-9.1c0.3-1.3,0.8-2.3,1.4-3
				c0-0.2,0-0.3,0-0.5c0-0.1,0-0.1,0-0.2c0-0.3,0.1-0.6,0.1-0.9c0.3-1.5,0.8-2.9,1.6-4.2c-0.1-0.2-0.1-0.3-0.2-0.5
				c-0.1-0.2-0.2-0.4-0.2-0.7c-0.1-0.5-0.2-0.9-0.3-1.4c-0.1-1,0-1.9,0.3-2.9c0-0.1-0.1-0.2-0.1-0.3c0-0.2,0-0.3,0-0.5
				c-0.2-0.7-0.2-1.4-0.1-2.1c0-0.3,0-0.5,0-0.8c0-4.5,0.1-9.2,2.5-13.2c0.3-0.5,0.7-0.9,1-1.4c-0.3-0.2-1.6-1.5-2-1.9
				c-0.3-0.3-0.6-0.6-0.8-0.9c-1.7-1.6-3.3-2.6-4.5-3.1c-0.7-0.3-1.2-0.5-1.6-0.6c-0.1,0.2-0.4,0.4-0.7,0.5c-0.5,0.1-1-0.1-1.2-0.6
				c-0.3-0.7,0.1-1.5,0.8-1.6c0.4-0.1,0.8,0.1,1,0.4c0.2,0.3,0.2,0.5,0.2,0.8c0.7,0.1,1.5,0.2,2.3,0.1c0.7-0.1,1.5-0.2,2.2-0.5
				c3.1-1.2,5-4.1,5.3-7.3c0,0,0,0,0,0c-0.4,0-0.8-0.3-1-0.8c-0.2-0.7,0.2-1.4,0.9-1.5c0.4-0.1,0.9,0.2,1.1,0.6
				c0.3,0.5,0.2,1-0.2,1.3v0c2.2,1.7,5.2,2.2,7.9,1.2c2.8-1.1,4.7-3.6,5.2-6.4c0-0.1,0-0.2,0-0.3c-0.5,0-0.9-0.3-1-0.8
				c-0.2-0.7,0.2-1.4,0.9-1.5c0.4-0.1,0.8,0.2,1.1,0.5c0.3,0.5,0.2,1.1-0.2,1.4c0.1,0,0.1,0.1,0.2,0.1c2.1,1.3,4.8,1.7,7.3,0.7
				c2.5-1,4.2-3,4.9-5.4c0-0.1,0.1-0.2,0.1-0.3c-0.4,0-0.8-0.3-1-0.7c-0.2-0.7,0.2-1.4,0.9-1.5c0.4-0.1,0.9,0.1,1.1,0.5
				c0.3,0.5,0.1,1.2-0.3,1.5c0.1,0.1,0.2,0.1,0.3,0.2c1.6,1.7,3.9,2.3,7.7,1c0.1,0,0.3-0.1,0.4-0.2c0.3-0.2,0.7-0.3,1-0.5
				c0,0-0.1-0.1-0.1-0.2c-0.2-0.6,0.1-1.2,0.6-1.5c0.6-0.3,1.4,0.2,1.5,0.9c0.1,0.4-0.1,0.9-0.5,1.1c-0.4,0.2-0.8,0.2-1.1,0
				c-0.1,0.2-0.2,0.3-0.3,0.5c-0.6,1.2-1.4,3.3-1.7,6.1c0,0.4-0.1,0.8-0.1,1.2c0,0.6,0,1.3,0,1.9c0,0.2,0,0.4,0.1,0.7
				c2.8,0.2,4.9,2.2,5.6,2.9c0.3,0,0.5,0,0.8,0c1.9,0.2,3.1,0.9,3.7,2.1c0.7,1.5,0.1,3.3-0.3,4.3c-0.2,0.4-0.3,0.7-0.4,0.7l-0.3-0.2
				l0.5,0.8c1.6,2.9,2.2,5.9,1.9,8.7c0,0.2,0,0.4-0.1,0.6c0,0.4-0.1,0.7-0.1,1c0,0.5,0,1,0.1,1.6c0.3,1.9,1.4,3.6,3.3,5.3
				c0.6,0.4,1,1.1,1.1,1.8c0.1,0.7-0.1,1.4-0.5,1.9c-0.4,0.5-1,1-1.5,1.6c-0.2,0.2-0.5,0.5-0.7,0.7l0.1,1.6c0.2,0.1,0.3,0.1,0.5,0.2
				c0.5,0.2,0.9,0.7,0.9,1.3c0,0.6-0.2,1.1-0.7,1.4c-0.2,0.1-0.4,0.2-0.6,0.3c0.2,0.3,0.2,0.6,0.1,1C73.9,67.4,73,68,72.1,68
				c0,0-0.1,0-0.1,0c-0.2,0-0.3,0-0.5-0.1c0.2,2.3,0.2,5.8-1.8,6.8c-1.2,0.4-2.5,0.2-3.7,0.1c-2.3-0.3-4.6-0.9-6.8-1.8
				c-0.4-0.2-0.8-0.4-1.2-0.5c-2.6,1-7.3,3.6-7.9,8.7c-0.3,2.9,0.1,5.8,0.7,8.1c1.7,1.2,3.8,2.5,6.3,3.5c3.2,1.3,5.3,3.1,6,5.3
				c0.2,0.5,0.3,1,0.3,1.4c0,0.6,0,1.1-0.1,1.5c0,0.1,0,0.2-0.1,0.3c0,0,0,0,0,0.1c0.2,0.1,0.3,0.2,0.5,0.3
				c-0.2,0.4-0.4,0.8-0.6,1.2c-0.7,1.2-1.5,2.4-2.5,3.3c-0.3,0.3-0.6,0.5-1,0.7h24.7V45.4C84.3,23.9,66.8,6.4,45.3,6.4L45.3,6.4z"/>
			<path class="st0" d="M23.9,90.8c0,0.1,0,0.2,0,0.3c0.6,0.5,1.1,1,1.7,1.6c0-1.2-0.1-2.5-0.4-3.7C24.8,89.6,24.3,90.2,23.9,90.8z"
				/>
			<path class="st0" d="M46.5,0H44C19.7,0,0,19.7,0,44v69.2h90.6V44C90.6,19.7,70.9,0,46.5,0z M86.1,108.8H54.5
				c-0.6,0.1-1.2,0.1-1.9,0.1c-0.2,0-0.4,0-0.7,0c-0.4,0-0.9-0.1-1.3-0.1c-0.3,0-0.5-0.1-0.8-0.1c-0.1,0-0.1,0.1-0.2,0.1
				c-0.8,0.5-1.6,0.9-2.5,1.2c-1.1,0.4-2.3,0.5-3.5,0.5c0,0-0.1,0-0.1,0c-0.5,0-1.1-0.1-1.6-0.1c-1.2-0.2-2.5-0.6-3.6-1.1
				c-0.1,0-0.1-0.1-0.2-0.1c-0.6,0.1-1.2,0.2-1.8,0.2c-0.4,0-0.8,0.1-1.3,0.1c-1.5,0-2.8-0.2-4-0.6H4.5V45.4
				c0-22.5,18.3-40.8,40.8-40.8s40.8,18.3,40.8,40.8L86.1,108.8L86.1,108.8z"/>
			<path class="st0" d="M20.7,69.6c0,0.2-0.1,0.3-0.1,0.5c0,0.1,0,0.2,0,0.3c0,0.3,0,0.6,0,0.9c0,1.1,0.1,2.3,0.5,3.3
				c0.9-1.9,2-3.7,3.5-5.2c0,0,0,0,0,0c0.1-0.1,0.2-0.2,0.2-0.2c-0.1-0.1-0.3-0.2-0.4-0.3c-0.1-0.1-0.2-0.2-0.3-0.3
				c-0.2-0.1-0.3-0.3-0.5-0.4c-0.1-0.1-0.2-0.1-0.3-0.2c0,0,0,0,0,0c-0.1-0.1-0.2-0.2-0.2-0.2c-0.4-0.4-0.8-0.9-1.2-1.4
				c-0.4,0.7-0.7,1.5-0.9,2.3C20.8,69,20.7,69.3,20.7,69.6L20.7,69.6z"/>
			<path class="st0" d="M21.8,52.4c0.8-2.2,2.2-4.1,4-5.5c0.1-0.1,0.2-0.1,0.3-0.2c0.3-0.2,0.6-0.4,0.9-0.5c1.7-0.9,3.9-1.6,4.2-3.7
				c0-0.7-0.2-1.4-0.4-2.3c-0.2-0.9-0.3-1.9-0.3-2.8c-0.3,0.2-2.4,1.5-3.1,2c-0.3,0.2-0.5,0.4-0.8,0.5c-0.1,0.3-0.2,0.7-0.3,1
				c-0.1,0.1-0.1,0.1-0.2,0.2c-0.4,0.3-0.8,0.7-1.2,1.1c-1.7,1.9-2.5,4.6-2.8,7.1C21.9,50.4,21.8,51.4,21.8,52.4L21.8,52.4z"/>
			<path class="st0" d="M39.2,51.1c0.1,0,0.1,0,0.2,0c3.1-1.3,5.2-4.3,7.2-8.1c0.5-0.9,1-1.8,1.5-2.8c0.3-0.3,0.5-0.6,0.6-1
				c0-0.1,0.1-0.2,0.1-0.3c0.4-0.8,0.9-1.6,1.3-2.5c1.1-1.9,2.2-3.7,3.5-5.5c1.1-1.5,2.3-2.6,3.6-3.2c-0.4-0.2-3,0.1-4.2,0.3
				c-0.3,0.1-0.6,0.1-0.9,0.2c-0.1,0-0.2,0-0.3,0.1c-0.8,0.5-1.6,1.2-2.4,2.1c-0.3,0.3-0.5,0.5-0.8,0.8c-2.5,2.9-4.5,6.2-6.3,9.5
				L42,41.3c-2.1,3.6-4.3,7.2-7.1,10.1c0.9-0.1,1.9-0.2,3-0.3C38.3,51.1,38.7,51.1,39.2,51.1L39.2,51.1z"/>
			<path class="st0" d="M30.3,52.3c0.6-0.2,1.3-0.3,2-0.5c0.1,0,0.2,0,0.3-0.1c0.4-0.4,0.8-0.7,1.2-1.1c2.8-2.8,5-6.3,7.1-10
				l0.4-0.7c1.9-3.3,3.9-6.8,6.5-9.7c0.4-0.5,0.9-1,1.3-1.4c0,0,0,0,0,0c-2.6,0.5-9.6,3.5-10.4,3.9c-0.3,1.2-0.5,2.4-0.8,3.7
				c-0.3,2-0.7,4.1-1.5,6c-0.8,2-2.1,3.7-3.3,5.4l-3.4,4.5l-0.1,0.2c0.1,0,0.1,0,0.2-0.1C29.9,52.4,30.1,52.4,30.3,52.3z"/>
			<path class="st0" d="M52.8,16.5c-0.9,2.5-2.8,4.7-5.4,5.7c-2.6,1-5.5,0.7-7.7-0.6c-0.7,3-2.7,5.6-5.7,6.8
				c-2.8,1.1-5.9,0.7-8.3-0.9c-0.5,3.2-2.6,6.1-5.8,7.4c-0.4,0.2-0.8,0.3-1.2,0.4c1,0.6,2.2,1.5,3.3,2.6c1.4-1,3.3-2.3,5.5-3.7
				c1.6-1,3.4-2.1,5.3-3.1c0,0,0,0,0,0c1.2-0.6,2.5-1.3,3.8-1.9c0.3-0.1,0.6-0.3,0.9-0.4c0.3-0.1,0.6-0.3,0.9-0.4
				c0.2-0.1,0.3-0.2,0.5-0.2c0.1-0.1,0.3-0.1,0.4-0.2c0.4-0.2,0.8-0.3,1.1-0.5c0.4-0.1,0.7-0.3,1.1-0.4c0.6-0.2,1.2-0.5,1.8-0.7
				c0.5-0.2,0.9-0.3,1.4-0.5c4.5-1.5,9.4-2.6,14.4-2.7c0.2-2.3,0.7-4.1,1.3-5.4C57.1,18.9,54.6,18.2,52.8,16.5L52.8,16.5z"/>
			<path class="st0" d="M30,46c-0.9,0.6-1.9,1-2.8,1.5c-0.1,0.1-0.3,0.2-0.4,0.3c-0.3,0.2-0.6,0.4-0.9,0.7c-1.2,1.1-2.2,2.5-2.8,4
				c-0.1,0.3-0.2,0.6-0.3,0.9c-0.3,0.7-0.5,1.5-0.7,2.2C22,56.2,22,56.7,22,57.3c1-1.3,2.6-2.8,5.4-4l2.1-2.8L32,47
				c1.2-1.6,2.4-3.3,3.2-5.1c0.8-1.8,1.1-3.8,1.4-5.7c0.2-0.9,0.3-1.7,0.5-2.6c-0.3,0.2-3.9,2-5.3,2.8c-0.1,0.4-0.1,0.8-0.1,1.2
				c-0.1,1.6,0.5,3,0.6,4.4c0.1,1.1-0.1,2.1-1.3,3.2C30.8,45.5,30.4,45.8,30,46z"/>
			<path class="st0" d="M24.2,40.2c0.4-0.3,0.8-0.6,1.3-0.9c0.2-0.1,0.4-0.3,0.5-0.4c0.5-0.4,1.1-0.7,1.7-1.1
				c0.7-0.5,1.4-0.9,2.2-1.4c0.3-0.2,0.6-0.3,0.8-0.5c0.3-0.2,0.5-0.3,0.8-0.5c0.3-0.2,0.5-0.3,0.8-0.5c1.3-0.8,2.7-1.5,4.1-2.3
				c0.3-0.2,0.7-0.3,1-0.5c0.1,0,0.1-0.1,0.2-0.1c0.5-0.3,1.1-0.5,1.6-0.8c0.9-0.4,1.8-0.8,2.7-1.2c0.9-0.4,1.9-0.7,2.8-1.1
				c1.2-0.4,2.4-0.8,3.6-1.1c0.6-0.2,1.2-0.3,1.7-0.4c0.1,0,0.2-0.1,0.3-0.1c0.3-0.1,0.5-0.1,0.8-0.2c0.4-0.1,0.8-0.2,1.2-0.2
				c1.6-0.3,3.2-0.5,4.8-0.6c0.1,0,0.2,0,0.3,0c0.7,0,1.3-0.1,2-0.1c0-0.7-0.1-1.3,0-1.9c-3.8,0.1-7.7,0.8-11.3,1.9
				c-0.2,0.1-0.5,0.1-0.7,0.2c-0.1,0-0.1,0-0.2,0.1c-0.2,0.1-0.5,0.2-0.7,0.2c-0.5,0.1-0.9,0.3-1.4,0.4c-1.6,0.5-3.2,1.1-4.7,1.8
				c-0.7,0.3-1.4,0.6-2,0.9c-0.2,0.1-0.3,0.1-0.5,0.2c-0.4,0.2-0.8,0.4-1.1,0.5c-1,0.5-2,1-2.9,1.5c-0.3,0.2-0.6,0.3-1,0.5
				c-0.1,0-0.1,0.1-0.2,0.1c-0.4,0.2-0.8,0.5-1.2,0.7c-0.3,0.2-0.7,0.4-1,0.6c-0.6,0.3-1.2,0.7-1.7,1c-0.5,0.3-0.9,0.6-1.4,0.9
				c-0.7,0.4-1.3,0.9-1.9,1.3c-1,0.7-1.8,1.3-2.6,1.8c0.4,0.4,0.7,0.9,1.1,1.3C24.1,40.1,24.1,40.2,24.2,40.2L24.2,40.2z"/>
		</g>
	</g>
</g>
</svg>
