<?xml version="1.0" encoding="UTF-8"?>
<svg id="Capa_2" data-name="Capa 2" xmlns="http://www.w3.org/2000/svg" viewBox="0 0 253.123 81.699">
  <defs>
    <style>
      .cls-1 {
        fill: #fff;
      }
    </style>
  </defs>
  <g id="Capa_1-2" data-name="Capa 1">
    <g>
      <g>
        <path class="cls-1" d="m0,58.145l2.387-17.137h.512c1.876,12.107,9.208,19.438,19.609,19.438,6.906,0,11.424-3.836,11.424-10.401,0-4.86-2.558-7.758-8.952-10.487l-10.827-4.86C5.627,30.863,1.108,25.321,1.108,17.307,1.108,7.758,8.014,0,22.081,0c5.798,0,12.789,1.449,18.33,4.433l-2.813,15.943h-.512c-1.961-11.936-8.27-17.819-17.733-17.819-7.332,0-11.339,3.666-11.339,8.952,0,4.774,2.472,7.332,9.293,10.401l11.68,5.456c8.781,3.922,12.277,8.867,12.277,16.54,0,11.339-8.27,19.183-21.314,19.183-7.588,0-14.494-1.876-19.95-4.945Z"/>
        <path class="cls-1" d="m78.691,9.975v42.543c0,5.286,1.535,7.588,6.138,8.27v.597h-23.531v-.597c4.604-.682,6.138-2.217,6.138-8.27V9.975c0-5.201-1.45-6.906-6.138-7.673v-.597h23.531v.597c-4.689.767-6.138,2.813-6.138,7.673Z"/>
        <path class="cls-1" d="m105.461,58.145l2.387-17.137h.512c1.876,12.107,9.208,19.438,19.609,19.438,6.906,0,11.424-3.836,11.424-10.401,0-4.86-2.558-7.758-8.952-10.487l-10.828-4.86c-8.526-3.836-13.044-9.378-13.044-17.392,0-9.549,6.906-17.307,20.973-17.307,5.798,0,12.789,1.449,18.33,4.433l-2.813,15.943h-.512c-1.961-11.936-8.27-17.819-17.733-17.819-7.332,0-11.339,3.666-11.339,8.952,0,4.774,2.472,7.332,9.293,10.401l11.68,5.456c8.781,3.922,12.277,8.867,12.277,16.54,0,11.339-8.27,19.183-21.314,19.183-7.588,0-14.494-1.876-19.95-4.945Z"/>
        <path class="cls-1" d="m168.293,58.145l2.387-17.137h.512c1.876,12.107,9.208,19.438,19.609,19.438,6.906,0,11.424-3.836,11.424-10.401,0-4.86-2.558-7.758-8.952-10.487l-10.828-4.86c-8.526-3.836-13.044-9.378-13.044-17.392,0-9.549,6.906-17.307,20.973-17.307,5.798,0,12.789,1.449,18.33,4.433l-2.813,15.943h-.512c-1.961-11.936-8.27-17.819-17.733-17.819-7.332,0-11.339,3.666-11.339,8.952,0,4.774,2.472,7.332,9.293,10.401l11.68,5.456c8.781,3.922,12.277,8.867,12.277,16.54,0,11.339-8.27,19.183-21.314,19.183-7.588,0-14.494-1.876-19.95-4.945Z"/>
        <path class="cls-1" d="m246.984,9.975v42.543c0,5.286,1.535,7.588,6.138,8.27v.597h-23.531v-.597c4.604-.682,6.138-2.217,6.138-8.27V9.975c0-5.201-1.449-6.906-6.138-7.673v-.597h23.531v.597c-4.689.767-6.138,2.813-6.138,7.673Z"/>
      </g>
      <g>
        <path class="cls-1" d="m26.342,78.846c-.076.458-.213.867-.41,1.226-.197.359-.439.658-.725.898-.286.24-.615.421-.986.544-.371.123-.766.185-1.186.185-.322,0-.627-.037-.913-.111-.287-.074-.561-.188-.824-.34s-.496-.331-.7-.534c-.288-.297-.496-.613-.623-.948-.127-.335-.206-.698-.235-1.091-.03-.392-.045-.955-.045-1.689,0-.564.008-1.011.023-1.342.015-.331.048-.634.102-.91.053-.276.14-.533.261-.773.121-.24.294-.474.518-.703.322-.322.689-.567,1.101-.735.411-.167.856-.251,1.336-.251.869,0,1.597.246,2.185.739.587.493.961,1.197,1.123,2.114h-1.438c-.11-.487-.325-.873-.645-1.159-.32-.286-.728-.429-1.224-.429-.272,0-.527.049-.767.146s-.442.235-.607.413c-.123.136-.218.272-.286.409-.068.138-.123.32-.165.546-.043.227-.071.481-.086.765s-.022.673-.022,1.168c0,.491.007.877.022,1.159.015.282.043.536.086.765s.098.409.165.543c.068.133.163.274.286.422.165.174.368.31.607.409s.495.149.767.149c.335,0,.63-.065.884-.197.254-.131.466-.317.636-.558.169-.241.29-.519.363-.832h1.425Z"/>
        <path class="cls-1" d="m34.871,81.622h-5.884v-9.273h1.419v8.007h4.465v1.266Z"/>
        <path class="cls-1" d="m39.539,69.334l-1.45,2.111h-.999l.973-2.111h1.476Zm-.871,12.288h-1.419v-9.273h1.419v9.273Z"/>
        <path class="cls-1" d="m48.849,81.622h-1.291l-4.28-6.525v6.525h-1.418v-9.273h1.297l4.287,6.513v-6.513h1.406v9.273Z"/>
        <path class="cls-1" d="m53.466,81.622h-1.418v-9.273h1.418v9.273Z"/>
        <path class="cls-1" d="m62.974,78.846c-.076.458-.213.867-.41,1.226-.197.359-.439.658-.725.898-.286.24-.615.421-.986.544s-.766.185-1.186.185c-.322,0-.627-.037-.913-.111s-.561-.188-.824-.34c-.263-.153-.496-.331-.699-.534-.288-.297-.496-.613-.623-.948-.127-.335-.206-.698-.235-1.091-.03-.392-.045-.955-.045-1.689,0-.564.007-1.011.022-1.342.015-.331.049-.634.102-.91.053-.276.14-.533.261-.773s.294-.474.518-.703c.322-.322.689-.567,1.1-.735.412-.167.857-.251,1.336-.251.869,0,1.597.246,2.185.739.587.493.961,1.197,1.123,2.114h-1.437c-.11-.487-.326-.873-.645-1.159-.32-.286-.729-.429-1.225-.429-.272,0-.527.049-.767.146-.239.097-.442.235-.607.413-.123.136-.219.272-.286.409-.068.138-.123.32-.165.546-.043.227-.071.481-.086.765s-.022.673-.022,1.168c0,.491.007.877.022,1.159.015.282.043.536.086.765.042.229.097.409.165.543.067.133.163.274.286.422.165.174.368.31.607.409.24.099.495.149.767.149.335,0,.63-.065.884-.197.255-.131.466-.317.636-.558.17-.241.29-.519.363-.832h1.424Z"/>
        <path class="cls-1" d="m72.457,81.622h-1.5l-.636-1.864h-3.661l-.636,1.864h-1.5l3.4-9.273h1.131l3.4,9.273Zm-2.529-3.059l-1.405-4.115-1.443,4.115h2.848Z"/>
        <path class="cls-1" d="m85.055,76.922v.464c0,.5-.019.937-.057,1.31-.038.373-.126.74-.264,1.1-.138.36-.345.679-.621.954-.582.581-1.382.871-2.4.871h-3.26v-9.273h3.26c1.019,0,1.819.29,2.4.871.276.276.483.585.621.928.138.344.226.693.264,1.05.038.356.057.774.057,1.253v.471Zm-1.406.003c0-.534-.009-.946-.026-1.236s-.062-.562-.137-.817-.186-.464-.334-.629c-.381-.419-.907-.629-1.577-.629h-1.705v6.742h1.705c.674,0,1.2-.207,1.577-.623.221-.241.359-.57.414-.985.055-.415.083-1.023.083-1.824Z"/>
        <path class="cls-1" d="m93.844,81.622h-5.934v-9.273h5.934v1.266h-4.516v2.703h3.854v1.253h-3.854v2.786h4.516v1.266Z"/>
        <path class="cls-1" d="m108.65,81.622h-1.419v-6.201l-2.128,4.522h-1.042l-2.185-4.522v6.201h-1.418v-9.273h1.418l2.707,5.769,2.649-5.769h1.419v9.273Z"/>
        <path class="cls-1" d="m117.763,81.622h-5.934v-9.273h5.934v1.266h-4.516v2.703h3.854v1.253h-3.854v2.786h4.516v1.266Z"/>
        <path class="cls-1" d="m127.068,76.922v.464c0,.5-.019.937-.058,1.31s-.126.74-.264,1.1-.345.679-.621.954c-.582.581-1.382.871-2.4.871h-3.26v-9.273h3.26c1.018,0,1.819.29,2.4.871.276.276.483.585.621.928.138.344.226.693.264,1.05s.058.774.058,1.253v.471Zm-1.406.003c0-.534-.009-.946-.025-1.236-.017-.29-.063-.562-.137-.817-.075-.254-.186-.464-.334-.629-.382-.419-.907-.629-1.577-.629h-1.704v6.742h1.704c.675,0,1.2-.207,1.577-.623.22-.241.358-.57.414-.985.055-.415.082-1.023.082-1.824Z"/>
        <path class="cls-1" d="m131.341,81.622h-1.419v-9.273h1.419v9.273Z"/>
        <path class="cls-1" d="m140.849,78.846c-.076.458-.213.867-.41,1.226-.197.359-.439.658-.725.898-.286.24-.615.421-.986.544-.371.123-.766.185-1.186.185-.322,0-.627-.037-.913-.111-.287-.074-.561-.188-.824-.34s-.496-.331-.7-.534c-.288-.297-.496-.613-.623-.948-.127-.335-.206-.698-.235-1.091-.03-.392-.045-.955-.045-1.689,0-.564.008-1.011.023-1.342.015-.331.048-.634.102-.91.053-.276.14-.533.261-.773.121-.24.294-.474.518-.703.322-.322.689-.567,1.101-.735.411-.167.856-.251,1.336-.251.869,0,1.597.246,2.185.739.587.493.961,1.197,1.123,2.114h-1.438c-.11-.487-.325-.873-.645-1.159-.32-.286-.728-.429-1.224-.429-.272,0-.527.049-.767.146s-.442.235-.607.413c-.123.136-.218.272-.286.409-.068.138-.123.32-.165.546-.043.227-.071.481-.086.765s-.022.673-.022,1.168c0,.491.007.877.022,1.159.015.282.043.536.086.765s.098.409.165.543c.068.133.163.274.286.422.165.174.368.31.607.409s.495.149.767.149c.335,0,.63-.065.884-.197.254-.131.466-.317.636-.558.169-.241.29-.519.363-.832h1.425Z"/>
        <path class="cls-1" d="m144.912,81.622h-1.419v-9.273h1.419v9.273Z"/>
        <path class="cls-1" d="m155.095,81.622h-1.291l-4.28-6.525v6.525h-1.418v-9.273h1.297l4.287,6.513v-6.513h1.406v9.273Z"/>
        <path class="cls-1" d="m165.13,81.622h-1.5l-.636-1.864h-3.661l-.636,1.864h-1.5l3.4-9.273h1.131l3.4,9.273Zm-2.529-3.059l-1.405-4.115-1.443,4.115h2.848Z"/>
        <path class="cls-1" d="m177.061,81.622h-5.934v-9.273h5.934v1.266h-4.516v2.703h3.854v1.253h-3.854v2.786h4.516v1.266Z"/>
        <path class="cls-1" d="m185.57,78.976c0,.411-.08.788-.241,1.129-.161.341-.393.632-.697.871s-.656.42-1.059.541c-.403.121-.848.181-1.336.181-.708,0-1.324-.095-1.848-.284-.524-.19-1.004-.504-1.441-.943l.942-.929c.207.212.435.386.684.522.248.136.512.231.792.286.28.055.579.083.897.083.598,0,1.066-.125,1.405-.375.339-.25.509-.599.509-1.047,0-.419-.123-.739-.369-.959-.11-.11-.239-.194-.385-.251s-.355-.105-.626-.143l-1.094-.153c-.755-.106-1.342-.354-1.762-.744-.449-.42-.674-1.009-.674-1.768,0-.538.125-1.013.375-1.424.25-.411.608-.73,1.075-.957s1.015-.34,1.647-.34c.623,0,1.162.084,1.615.252s.876.436,1.266.802l-.903.891c-.187-.182-.386-.325-.598-.429-.212-.104-.433-.178-.662-.223-.229-.044-.481-.067-.757-.067-.352,0-.655.061-.909.184s-.448.293-.582.511-.2.467-.2.746c0,.368.116.656.349.863.115.097.265.185.452.263.187.078.384.132.592.162l1.056.159c.424.064.77.149,1.04.257s.5.251.69.429c.505.441.757,1.075.757,1.902Z"/>
        <path class="cls-1" d="m193.927,73.615h-2.55v8.007h-1.406v-8.007h-2.556v-1.266h6.513v1.266Z"/>
        <path class="cls-1" d="m202.239,81.622h-5.934v-9.273h5.934v1.266h-4.516v2.703h3.854v1.253h-3.854v2.786h4.516v1.266Zm-1.31-12.288l-1.45,2.111h-.998l.973-2.111h1.476Z"/>
        <path class="cls-1" d="m210.64,73.615h-2.55v8.007h-1.406v-8.007h-2.557v-1.266h6.513v1.266Z"/>
        <path class="cls-1" d="m214.437,81.622h-1.418v-9.273h1.418v9.273Z"/>
        <path class="cls-1" d="m223.945,78.846c-.076.458-.213.867-.41,1.226-.197.359-.439.658-.725.898-.286.24-.615.421-.986.544-.371.123-.766.185-1.186.185-.322,0-.627-.037-.913-.111-.287-.074-.561-.188-.824-.34s-.496-.331-.7-.534c-.288-.297-.496-.613-.623-.948-.127-.335-.206-.698-.235-1.091-.03-.392-.045-.955-.045-1.689,0-.564.008-1.011.023-1.342.015-.331.048-.634.102-.91.053-.276.14-.533.261-.773.121-.24.294-.474.518-.703.322-.322.689-.567,1.101-.735.411-.167.856-.251,1.336-.251.869,0,1.597.246,2.185.739.587.493.961,1.197,1.123,2.114h-1.438c-.11-.487-.325-.873-.645-1.159-.32-.286-.728-.429-1.224-.429-.272,0-.527.049-.767.146s-.442.235-.607.413c-.123.136-.218.272-.286.409-.068.138-.123.32-.165.546-.043.227-.071.481-.086.765s-.022.673-.022,1.168c0,.491.007.877.022,1.159.015.282.043.536.086.765s.098.409.165.543c.068.133.163.274.286.422.165.174.368.31.607.409s.495.149.767.149c.335,0,.63-.065.884-.197.254-.131.466-.317.636-.558.169-.241.29-.519.363-.832h1.425Z"/>
        <path class="cls-1" d="m233.427,81.622h-1.5l-.636-1.864h-3.661l-.636,1.864h-1.5l3.4-9.273h1.131l3.4,9.273Zm-2.529-3.059l-1.405-4.115-1.443,4.115h2.847Z"/>
      </g>
    </g>
  </g>
</svg>