<?xml version="1.0" encoding="UTF-8"?>
<svg id="Capa_2" data-name="Capa 2" xmlns="http://www.w3.org/2000/svg" viewBox="0 0 448.192 177.184">
  <defs>
    <style>
      .cls-1 {
        fill: #fff;
      }
    </style>
  </defs>
  <g id="Capa_1-2" data-name="Capa 1">
    <g>
      <g>
        <path class="cls-1" d="m45.786,107.56c.031-.009.064-.017.095-.026-.012.012-.021.024-.033.036l1.336.205,7.494,1.148c.312.047.62.093.928.139.674.1,1.338.192,1.995.277,5.028.647,9.556.747,13.487-1.257,1.938-.988,3.577-2.531,4.787-4.366.013-.02.025-.042.037-.062.024-.035.043-.072.066-.107.276-.433.531-.879.758-1.34.115-.233.223-.468.324-.707-.16.056-.321.114-.497.172-.111.037-.224.074-.341.111-.537.171-1.136.346-1.798.518-.012.014-.024.027-.036.04-.009-.008-.017-.016-.026-.025-.17.044-.345.088-.524.132-1.162.285-2.503.557-4.029.79-2.315.353-5.057.615-8.256.685-.554.012-1.116.02-1.697.02h-.402c-.019,0-.038,0-.057,0-1.548,0-3.049.003-4.476.062-.192.008-.382.017-.571.027-.486.026-.961.059-1.426.102-.005,0-.01,0-.014.001-.233.022-.462.047-.69.074-2.165.255-4.07.763-5.59,1.749-.607.394-1.153.864-1.628,1.428.005.018.011.037.017.055l.766.117Z"/>
        <path class="cls-1" d="m52.662,102.138c.123-.012.247-.022.371-.032.548-.046,1.105-.08,1.671-.105.127-.006.255-.011.382-.015.48-.018.972-.023,1.461-.031,1.024-.017,2.059-.024,3.109-.023h.201c.054,0,.105,0,.16-.001.707-.002,1.392-.013,2.056-.032,4.457-.134,7.962-.658,10.591-1.253.013-.003.025-.006.039-.009.618-.141,1.19-.285,1.712-.429.384-.106.743-.212,1.075-.316.014-.004.027-.009.041-.013.331-.104.639-.207.919-.305.571-.202,1.033-.387,1.397-.543.651-.28.979-.467.992-.474l.061-.034c.096-.048.188-.097.283-.146.299-.153.584-.307.874-.461.655-.349,1.296-.699,1.904-1.054,7.835-4.566,11.795-9.574,13.931-14.496.209-.482.399-.963.576-1.443.892-2.429,1.387-4.824,1.731-7.121-1.527,2.164-3.774,4.957-6.798,7.737-4.596,4.225-11.742,9.017-21.421,10.477-.808.122-1.633.221-2.476.294-1.658.144-3.384.191-5.178.12-.029-.001-.058-.001-.087-.002-.234-.01-.46-.011-.691-.017-.7-.018-1.387-.023-2.059-.009-.308.006-.611.019-.914.033-2.029.092-3.925.339-5.683.744-.673.155-1.325.332-1.958.533-.116.037-.23.075-.344.113-2.645.885-4.922,2.18-6.82,3.878-.158.141-.319.28-.472.426-2.06,1.985-3.373,4.248-4.213,6.329-.172.427-.327.847-.462,1.255.302.257.6.499.894.729.168.131.329.244.495.367.069.005.139.008.209.014.445.036.889.083,1.332.135.375.043.749.09,1.122.141.01.001.02.003.029.004.036-.057.071-.115.108-.171.201-.309.417-.597.643-.869.032-.038.061-.08.094-.117.186-.216.382-.416.584-.609.494-.474,1.032-.883,1.61-1.234,1.93-1.173,4.3-1.715,6.906-1.961.005,0,.01-.001.014-.002Z"/>
        <path class="cls-1" d="m88.135,112.33c-3.718-1.954-7.198-4.342-10.428-7.037-.095-.079-.186-.161-.28-.241-1.38,2.011-3.227,3.701-5.425,4.821-2.76,1.407-5.701,1.897-8.83,1.897-1.893,0-3.856-.181-5.891-.444-.191.704-.455,1.436-.811,2.201-2.443,5.245-7.122,9.408-12.554,11.428-.292,4.066-1.363,8.085-3.143,11.745.959,3.468,1.347,7.1,1.142,10.692,1.835,2.321,3.388,4.87,4.604,7.565,3.648.792,7.314,2.56,10.609,5.176.628.498,1.233,1.019,1.822,1.557,2.653-.704,5.37-1.298,8.162-1.455,1.423-.08,3.136-.05,4.937.25.455.076.915.167,1.378.28.575.141,1.152.315,1.728.523,1.127-1.398,2.633-2.624,4.452-3.596,3.596-1.923,7.814-2.602,11.876-1.912,1.893.321,3.732.941,5.448,1.815.003-.017.006-.033.009-.051.012-.079.027-.152.036-.233.109-.926.071-2.024-.325-3.181-.971-2.838-3.737-5.199-8.22-7.017-3.142-1.275-5.886-2.777-8.227-4.296-.969-.628-1.868-1.259-2.696-1.878-.272-.996-.524-2.059-.742-3.173-.644-3.284-.98-7.022-.57-10.918.843-8.015,7.358-12.399,11.935-14.516Z"/>
        <path class="cls-1" d="m104.792,48.678c-5.527-.637-10.701,7.174-16.177,15.441-3.304,4.99-6.701,10.118-10.549,14.097,7.652-1.89,12.731-5.088,15.951-7.917,3.261-2.866,5.099-5.744,6.035-7.54.247-.706.541-1.381.903-2.021,1.9-3.361,3.976-5.119,6.171-5.225.504-.025.971.042,1.398.164.576-1.334,1.157-3.394.435-4.851-.583-1.175-1.984-1.898-4.166-2.148Z"/>
        <path class="cls-1" d="m42.714,123.261c.434-.147.862-.313,1.285-.49,4.611-1.931,8.543-5.573,10.649-10.094.266-.571.472-1.113.628-1.63-.299-.044-.599-.089-.902-.135l-6.857-1.05c.097,1.137.066,2.301-.106,3.464-.413,2.791-1.587,5.601-3.431,8.263-.391.565-.814,1.123-1.266,1.673Z"/>
        <path class="cls-1" d="m113.397,102.889c-.117-.013-.24-.026-.367-.037-.465-.043-.988-.074-1.549-.096-1.177-.046-2.494-.05-3.663-.036-.149.002-.297.004-.441.006.85.598,1.966,1.279,3.157,1.731.468.177.947.319,1.426.406.235.043.471.073.705.088.937.056,1.791-.512,2.045-1.352.113-.375.034-.42-.231-.508-.253-.084-.63-.149-1.084-.201Z"/>
        <path class="cls-1" d="m96.938,159.9c-1.789-1.051-3.754-1.791-5.789-2.137-3.623-.615-7.387-.01-10.591,1.702-1.369.732-2.544,1.645-3.465,2.668.536.281,1.064.595,1.578.955l-.012.017-1.143,1.632c-.526-.369-1.072-.682-1.628-.956-.618-.305-1.248-.557-1.882-.761-.394-.127-.789-.239-1.182-.332-2.027-.478-4.009-.534-5.598-.445-2.213.125-4.415.552-6.587,1.09-.754.187-1.504.386-2.25.592-.717.198-1.43.401-2.139.603l-.553-1.935c.31-.089.622-.178.935-.267-.248-.21-.5-.418-.754-.62-2.637-2.093-5.516-3.593-8.405-4.433-.795-.231-1.589-.414-2.381-.543-1.606-.262-3.196-.313-4.726-.133l-.235-1.999c1.302-.153,2.639-.154,3.991-.02-.916-1.834-2.007-3.582-3.237-5.224-.336-.448-.68-.889-1.037-1.32-.858-1.034-1.778-2.014-2.751-2.935-.598-.566-1.215-1.108-1.852-1.626-1.124-.913-2.3-1.758-3.537-2.504l1.041-1.723c.924.558,1.819,1.166,2.685,1.813.049.037.097.074.147.111.721-.893,1.383-1.833,1.988-2.81.373-.602.724-1.218,1.051-1.847.256-.492.498-.99.726-1.496,1.335-2.967,2.182-6.163,2.502-9.405-.552.144-1.11.26-1.672.359-1.07,1.024-2.2,1.983-3.358,2.894-.125-.748-.262-1.495-.418-2.239.927-.758,1.822-1.547,2.674-2.382l-.017-.125c.059-.008.119-.021.178-.03.365-.363.722-.732,1.069-1.114.595-.655,1.14-1.324,1.64-2.002.666-.905,1.246-1.828,1.734-2.761.895-1.712,1.486-3.456,1.742-5.184.175-1.176.183-2.351.044-3.484l-.809-.124c-.069-.011-.139-.021-.208-.032-.209-.032-.418-.064-.629-.096-.004,0-.007-.001-.011-.002-.486-.073-.976-.143-1.466-.209-.192-.026-.384-.051-.577-.075-.015-.002-.031-.003-.045-.006-.149-.018-.298-.036-.447-.052-.098-.012-.195-.024-.292-.034-.107.106-.212.212-.319.318-.002.002-.004.005-.006.007-.091.09-.179.18-.269.27-.011.011-.021.022-.032.033-.19.189-.381.378-.566.568-2.614,2.695-4.612,5.96-5.912,9.487-.322.875-.6,1.768-.835,2.671-.077.294-.148.589-.216.885-.103.456-.197.913-.278,1.373-.308,1.755-.451,3.539-.42,5.317.011.643.047,1.285.104,1.926.119,1.338.337,2.667.663,3.972l-1.952.488c-.707-2.832-.95-5.767-.769-8.681-.449.758-.834,1.559-1.152,2.392-.234.613-.434,1.24-.593,1.882-.586,2.358-.66,4.874-.133,7.308.255,1.176.655,2.329,1.168,3.443.41.889.895,1.752,1.45,2.578.96,1.43,2.123,2.75,3.45,3.907.558.487,1.146.945,1.759,1.37.842.585,1.73,1.111,2.66,1.562l-.877,1.811c-.802-.388-1.572-.825-2.312-1.298-.607-.388-1.194-.802-1.754-1.243-1.139-.894-2.173-1.895-3.098-2.974.123,2.779.957,5.545,2.436,7.868,1.138,1.787,2.676,3.339,4.447,4.547,1.218.831,2.547,1.497,3.935,1.963.546.184,1.1.339,1.66.459,1.272.27,2.566.38,3.869.392.675.006,1.354-.015,2.032-.056,1.748-.105,3.5-.339,5.224-.571l.268,1.995c-2.3.308-4.793.644-7.31.644-1.088,0-2.18-.066-3.264-.22.878.79,1.827,1.49,2.864,2.06.063.035.124.074.187.108,2.598,1.37,5.916,1.943,9.59,1.654.047-.004.093-.01.139-.014,1.043-.087,2.085-.239,3.118-.429.77-.142,1.534-.303,2.287-.48.723-.17,1.438-.35,2.138-.535.377-.1.735-.201,1.104-.303.406-.112.822-.224,1.217-.334l.093.334.448,1.605c-.511.142-1.036.288-1.568.433-.683.186-1.38.372-2.091.55-.164.041-.331.079-.496.119.203.066.408.125.614.184.045.013.089.028.134.04.929.254,1.879.425,2.836.517,2.075.201,4.183.018,6.191-.557.131-.037.263-.071.392-.112.641-.202,1.266-.447,1.875-.725.892-.408,1.746-.893,2.549-1.449.276-.191.543-.395.807-.603.36-.284.713-.578,1.048-.89.493-.458.956-.947,1.389-1.462.734-.871,1.38-1.817,1.916-2.829l1.778.943c-.651,1.228-1.446,2.369-2.354,3.412-.246.283-.502.557-.765.825-.211.215-.425.427-.646.631-.134.123-.271.242-.408.361.242.02.486.035.729.048.084.004.167.012.25.015.709.029,1.403.022,2.085-.013,1.912-.099,3.701-.455,5.322-1.043,1.727-.626,3.263-1.515,4.535-2.659,1.482-1.333,2.624-3.031,3.594-4.81Z"/>
        <path class="cls-1" d="m93.49,44.09c-.183.023-.365.052-.547.088-2.503.497-4.912,2.276-7.179,5.313-2.888,3.871-5.202,8.008-7.381,12.082-.361.674-.719,1.347-1.075,2.017-.072.137-.144.27-.216.407-3.494,6.582-6.649,12.414-11.225,15.83,3.071-.103,5.878-.396,8.439-.832,4.674-3.978,8.719-10.079,12.631-15.987,4.74-7.157,9.26-13.99,14.425-15.871-1.424-1.292-4.027-3.167-7.108-3.106-.255.005-.51.028-.764.059Z"/>
        <path class="cls-1" d="m31.709,119.711c-.683-1.589-1.151-3.263-1.397-4.973-.152.42-.297.859-.428,1.343-.885,3.257-1.277,6.653-1.182,10.033.579-.92,1.243-1.777,1.986-2.557.258-1.302.598-2.588,1.021-3.846Z"/>
        <path class="cls-1" d="m116.462,99.919c-.03-.356-.239-.659-.561-.812-.239-.114-.487-.198-.739-.269-.449-.127-.913-.191-1.386-.203-2.57-.063-5.353,1.402-6.946,2.408.306.057.664.114,1.071.166,1.074.137,2.503.237,4.327.207.374-.006.764-.017,1.171-.036.009,0,.016-.001.025-.001.142-.007.274-.017.403-.027,1.268-.103,1.927-.383,2.256-.613.381-.266.391-.661.379-.819Z"/>
        <path class="cls-1" d="m108.559,57.859c-.384-.21-.839-.363-1.35-.335-1.421.076-2.962,1.505-4.459,4.129-.092.263-.353.957-.857,1.941-.654,1.958-.93,4.284-1.236,6.875-.024.207-.049.418-.074.629,1.548-.429,3.151-.645,4.783-.563,1.263.107,2.535.439,3.733,1.027.501.246.707.851.461,1.351-.262.545-.966.734-1.466.395-2.249-1.519-4.954-1.748-7.616-1.344-.353,2.844-.839,5.975-1.977,9.21,3.269.307,7.722.209,10.226-2.045l1.01,1.122c-2.237,2.013-5.638,2.566-8.7,2.566-1.101,0-2.157-.072-3.1-.172-2.404,5.825-7.137,11.896-17.179,17.181-.616,1.353-1.31,2.665-2.077,3.934,3.683,2.856,7.758,5.486,11.976,7.536.803.391,1.611.762,2.423,1.108,4.799,2.046,9.705,3.275,14.339,3.185,3.151.006,3.049-6.665,2.868-9.623-2.937-1.022-5.396-3.269-5.525-3.388l-1.044-.966-.101-.094.247-.194.716-.563c.235-.185,4.928-3.812,9.385-3.625l-.07-2.919.076-.076c.495-.494,1.181-1.163,1.855-1.819.595-.581,1.181-1.151,1.615-1.583.97-.792,1.199-2.163.539-3.137-.158-.25-.36-.432-.595-.641l-.185-.169c-2.06-1.82-5.527-5.629-5.554-10.646-.035-.799.034-1.77.194-2.723,1.193-6.126-2.106-13.282-3.28-15.566Z"/>
        <path class="cls-1" d="m33.888,96.469c-.016.353-.005.706.02,1.058.008.124.024.247.036.37.031.292.069.584.129.875.071.347.165.692.276,1.034.13.402.284.8.466,1.192.142.308.305.612.48.913.462.795,1.03,1.563,1.71,2.288.454-1.203,1.053-2.473,1.842-3.74.345-.554.727-1.105,1.149-1.651.556-.719,1.178-1.427,1.884-2.109,2.142-2.071,4.744-3.631,7.775-4.687.142-.05.286-.097.431-.145.637-.209,1.289-.399,1.962-.564,1.362-.334,2.799-.576,4.311-.73,1.747-.178,3.593-.234,5.537-.17.143.005.282.005.425.011.693.029,1.374.037,2.046.031,16.899-.16,27.287-11.12,31.826-17.34.081-.111.161-.221.238-.329,1.348-1.882,2.131-3.277,2.368-3.717.04-.325.081-.643.123-.96-.939,1.157-2.082,2.385-3.472,3.617-5.151,4.567-14.791,10.038-31.471,10.164-1.114.009-2.202.041-3.268.091-.731.035-1.453.079-2.161.133-2.168.166-4.219.423-6.147.766-.202.036-.392.08-.592.117-.487.092-.976.183-1.446.286-.909.2-1.786.42-2.63.66-.221.063-.44.127-.656.193-.204.062-.401.128-.6.193-.854.275-1.671.571-2.446.889-1.25.512-2.397,1.08-3.434,1.7-.205.122-.41.244-.607.371-1.119.72-2.096,1.507-2.924,2.355-1.022,1.047-1.815,2.188-2.358,3.415-.067.151-.135.301-.194.455-.113.292-.206.587-.288.882-.131.469-.227.941-.283,1.416-.026.221-.047.443-.057.666Z"/>
        <path class="cls-1" d="m70.893,9.977c-33.642,0-61.012,27.37-61.012,61.013v96.379h33.474c-1.088-.899-2.075-1.912-2.977-2.979-3.639-1.341-6.803-3.859-8.9-7.152-2.187-3.434-3.119-7.563-2.667-11.587-1.165-1.889-2.018-3.944-2.484-6.092-.714-3.291-.445-6.723.632-9.819-.598-4.73-.267-9.589.983-14.185.547-2.012,1.276-3.582,2.202-4.735.014-.236.029-.473.052-.709.007-.085.02-.168.029-.252.054-.492.123-.981.214-1.466.437-2.347,1.305-4.593,2.542-6.623-.109-.24-.211-.482-.304-.726-.128-.337-.246-.675-.344-1.017-.206-.725-.337-1.461-.402-2.2-.132-1.519.04-3.049.532-4.53-.043-.152-.089-.302-.132-.454-.025-.239-.037-.479-.059-.719-.273-1.12-.35-2.25-.22-3.328-.018-.401-.043-.802-.054-1.203.005-7.013.096-14.464,3.864-20.7.48-.76,1.029-1.475,1.635-2.143-.406-.238-2.458-2.301-3.097-3.002-.44-.483-.881-.935-1.32-1.358-2.641-2.54-5.215-4.028-7.102-4.874-1.075-.482-1.922-.754-2.437-.898-.232.373-.592.664-1.055.773-.758.178-1.562-.213-1.905-.934-.512-1.077.122-2.359,1.289-2.546.603-.096,1.221.171,1.594.671.3.403.387.847.343,1.267,1.156.229,2.346.304,3.546.194,1.157-.107,2.32-.373,3.458-.823,4.779-1.886,7.86-6.406,8.292-11.354-.002-.002-.003-.003-.004-.005-.666-.044-1.272-.492-1.502-1.185-.348-1.043.301-2.194,1.424-2.342.67-.088,1.345.266,1.675.874.398.732.241,1.568-.258,2.106v.004c3.426,2.667,8.062,3.515,12.364,1.817,4.358-1.72,7.306-5.63,8.12-10.058.027-.148.045-.298.067-.447-.711.004-1.376-.447-1.62-1.181-.347-1.042.301-2.193,1.423-2.342.652-.086,1.313.245,1.651.828.455.785.262,1.712-.323,2.253.097.066.193.137.293.2,3.298,2.101,7.471,2.652,11.368,1.114,3.845-1.517,6.589-4.74,7.741-8.519.054-.175.1-.353.147-.53-.673-.017-1.3-.446-1.553-1.138-.377-1.031.238-2.201,1.355-2.384.669-.11,1.356.225,1.704.826.487.841.224,1.852-.48,2.367.133.107.264.214.401.315,2.555,2.648,6.132,3.565,12.096,1.612.233-.076.451-.187.671-.289.534-.246,1.041-.532,1.527-.843-.041-.076-.084-.152-.114-.237-.334-.913.111-1.937.993-2.285.994-.393,2.12.238,2.298,1.39.105.681-.207,1.384-.771,1.754-.569.372-1.217.349-1.732.063-.14.24-.293.519-.458.841-.964,1.882-2.27,5.153-2.678,9.616-.056.609-.093,1.241-.112,1.894-.028.969-.011,1.987.059,3.05.022.338.059.689.094,1.037,4.409.259,7.7,3.436,8.764,4.602.425-.023.854-.012,1.289.037,2.906.333,4.839,1.43,5.743,3.261,1.15,2.328.223,5.151-.458,6.674-.283.632-.524,1.046-.556,1.099l-.399-.239.813,1.203c2.434,4.486,3.457,9.182,2.973,13.602-.028.288-.07.611-.114.942-.075.564-.152,1.147-.16,1.624-.051.727-.007,1.565.13,2.502.445,2.916,2.199,5.708,5.213,8.3.918.636,1.535,1.651,1.694,2.789.15,1.081-.132,2.118-.796,2.922-.645.707-1.515,1.586-2.355,2.436-.387.391-.762.771-1.097,1.115l.111,2.533c.265.084.528.179.786.301.812.386,1.342,1.152,1.417,2.05.072.87-.308,1.685-1.018,2.181-.268.187-.582.343-.937.473.266.431.33.976.146,1.587-.434,1.435-1.828,2.429-3.365,2.429-.072,0-.144-.003-.216-.007-.263-.016-.527-.05-.789-.095.25,3.577.303,9.106-2.893,10.653-1.857.628-3.934.343-5.798.202-3.679-.443-7.211-1.486-10.627-2.849-.652-.269-1.296-.556-1.936-.852-4.053,1.626-11.502,5.655-12.331,13.542-.485,4.601.162,9.035,1.097,12.674,2.635,1.914,5.948,3.915,9.893,5.515,5.065,2.055,8.221,4.836,9.38,8.267.265.784.399,1.54.45,2.254.062.864,0,1.666-.125,2.366-.028.157-.063.301-.096.446-.007.029-.014.056-.021.085.266.174.527.355.784.542-.294.605-.602,1.211-.933,1.81-1.04,1.887-2.291,3.704-3.94,5.189-.468.421-.975.802-1.499,1.162h38.715v-96.379c0-33.642-27.371-61.013-61.013-61.013Z"/>
        <path class="cls-1" d="m37.412,142.098c-.013.173-.031.347-.046.52.902.783,1.763,1.615,2.582,2.489-.026-1.938-.233-3.873-.618-5.772-.587.957-1.227,1.881-1.919,2.764Z"/>
        <path class="cls-1" d="m72.857,0h-3.928C30.861,0,0,30.861,0,68.93v108.254h141.787v-108.254C141.787,30.861,110.926,0,72.857,0Zm61.939,170.258h-49.522c-.943.121-1.909.198-2.905.198-.348,0-.699-.007-1.053-.022-.678-.029-1.353-.094-2.025-.176-.402-.049-.803-.098-1.203-.164-.092.058-.187.108-.28.164-1.244.752-2.574,1.368-3.972,1.807-1.796.565-3.673.844-5.551.844-.075,0-.149-.006-.224-.006-.857-.01-1.713-.081-2.562-.207-1.939-.287-3.838-.867-5.602-1.748-.1-.05-.195-.106-.293-.157-.914.151-1.839.271-2.768.344-.67.053-1.331.079-1.98.079-2.274,0-4.399-.328-6.309-.956H6.991v-99.269C6.991,35.753,35.658,7.087,70.893,7.087s63.903,28.667,63.903,63.903v99.269Z"/>
        <path class="cls-1" d="m32.377,109.013c-.043.247-.08.494-.112.742-.023.182-.047.364-.064.546-.042.442-.064.888-.071,1.334-.027,1.755.215,3.526.706,5.225,1.357-2.992,3.198-5.758,5.48-8.118.01-.01.019-.02.028-.03.118-.122.243-.243.363-.365-.221-.167-.44-.329-.665-.508-.178-.143-.357-.289-.538-.44-.244-.204-.489-.417-.736-.636-.132-.117-.263-.233-.396-.355-.02-.018-.038-.038-.058-.056-.128-.119-.248-.242-.37-.364-.687-.682-1.283-1.41-1.801-2.167-.603,1.157-1.083,2.38-1.422,3.635-.139.515-.254,1.035-.345,1.558Z"/>
        <path class="cls-1" d="m34.106,81.967c1.212-3.394,3.407-6.434,6.332-8.555.131-.095.261-.192.395-.283.432-.313.912-.593,1.413-.862,2.72-1.457,6.122-2.504,6.509-5.772.067-1.045-.292-2.231-.61-3.534-.364-1.462-.5-2.949-.438-4.417-.411.267-3.809,2.351-4.912,3.118-.42.292-.826.577-1.211.851-.183.519-.335,1.048-.445,1.585-.111.112-.231.218-.337.334-.701.522-1.324,1.107-1.885,1.738-2.672,3.005-3.851,7.123-4.389,11.181-.197,1.528-.333,3.07-.421,4.616Z"/>
        <path class="cls-1" d="m61.379,79.928c.107-.004.208-.01.315-.014,4.787-1.997,8.074-6.769,11.346-12.649.781-1.404,1.562-2.869,2.362-4.376.395-.485.723-1.015.95-1.599.063-.162.115-.326.162-.491.684-1.28,1.384-2.568,2.108-3.854,1.649-2.929,3.435-5.85,5.53-8.657,1.75-2.345,3.61-4.035,5.562-5.067-.58-.285-4.71.22-6.577.544-.48.083-.958.173-1.437.267-.14.028-.281.055-.422.083-1.253.845-2.495,1.908-3.78,3.241-.401.416-.804.848-1.214,1.317-3.913,4.468-6.977,9.756-9.94,14.869l-.673,1.161c-3.315,5.708-6.671,11.205-11.156,15.781,1.475-.192,3.04-.346,4.714-.45.699-.043,1.416-.079,2.152-.106Z"/>
        <path class="cls-1" d="m47.456,81.879c.965-.268,1.988-.516,3.078-.739.15-.031.306-.059.459-.089.635-.552,1.259-1.134,1.87-1.747,4.432-4.452,7.764-9.925,11.067-15.612l.672-1.159c3.012-5.197,6.126-10.57,10.167-15.185.698-.797,1.381-1.518,2.059-2.175.004-.007.009-.015.013-.022-4.088.732-14.977,5.497-16.275,6.118-.505,1.858-.848,3.793-1.198,5.796-.547,3.13-1.112,6.367-2.392,9.374-1.317,3.094-3.311,5.782-5.239,8.382l-5.275,7.113-.226.306c.091-.028.177-.059.269-.087.308-.094.629-.184.95-.273Z"/>
        <path class="cls-1" d="m82.683,25.869c-1.354,3.978-4.322,7.343-8.416,8.959-4.129,1.63-8.538,1.141-12.108-.944-1.037,4.67-4.231,8.745-8.87,10.577-4.456,1.758-9.237,1.048-12.939-1.471-.784,5.074-4.09,9.598-9.051,11.556-.63.248-1.266.444-1.905.596,1.613.971,3.414,2.302,5.232,4.109,2.213-1.603,5.147-3.625,8.633-5.797,2.518-1.57,5.325-3.218,8.363-4.844.014-.007.027-.015.041-.022,1.866-.999,3.884-2.019,6.024-3.028.467-.22.938-.439,1.416-.657.458-.209.931-.414,1.399-.621.269-.119.532-.239.804-.357.225-.097.456-.192.684-.288.59-.251,1.181-.502,1.785-.747.575-.233,1.156-.464,1.742-.691.947-.367,1.912-.721,2.888-1.068.707-.251,1.416-.5,2.136-.739,7.036-2.332,14.713-4.033,22.521-4.3.289-3.532,1.113-6.38,1.958-8.475-5.642,1.912-9.484.907-12.337-1.749Z"/>
        <path class="cls-1" d="m47.035,72.023c-1.431.896-3.005,1.511-4.417,2.355-.223.133-.443.271-.658.418-.472.321-.915.677-1.345,1.049-1.945,1.684-3.447,3.857-4.401,6.25-.194.485-.371.977-.518,1.477-.473,1.12-.82,2.287-1.044,3.482-.165.879-.26,1.774-.288,2.677,1.523-2.02,4.099-4.333,8.418-6.214l3.297-4.446,4.042-5.45c1.858-2.505,3.78-5.096,5.003-7.971,1.189-2.794,1.734-5.914,2.262-8.932.236-1.35.478-2.718.776-4.079-.457.277-6.051,3.073-8.298,4.434-.09.599-.142,1.204-.153,1.811-.129,2.445.851,4.679,1.016,6.843.127,1.671-.231,3.302-1.963,4.957-.533.525-1.119.957-1.729,1.339Z"/>
        <path class="cls-1" d="m37.815,62.956c.588-.444,1.265-.944,2.016-1.485.273-.197.554-.398.847-.606.794-.563,1.663-1.166,2.597-1.795,1.056-.713,2.197-1.461,3.418-2.233.431-.273.873-.548,1.323-.825.394-.243.793-.487,1.201-.732.418-.251.852-.505,1.284-.759,2.016-1.183,4.176-2.381,6.468-3.554.514-.263,1.033-.524,1.56-.783.099-.049.2-.096.299-.145.828-.406,1.671-.806,2.527-1.199,1.376-.634,2.783-1.252,4.225-1.841,1.437-.587,2.904-1.147,4.396-1.674,1.855-.656,3.747-1.263,5.672-1.798.904-.251,1.816-.482,2.732-.701.176-.042.352-.086.528-.127.427-.099.856-.191,1.285-.282.608-.129,1.218-.251,1.83-.364,2.475-.458,4.981-.783,7.502-.944.142-.009.284-.023.426-.031,1.025-.058,2.052-.099,3.079-.1-.066-1.036-.089-2.035-.067-2.986-6.015.218-11.985,1.311-17.71,2.935-.354.1-.706.207-1.058.313-.09.027-.181.053-.271.081-.384.115-.764.237-1.145.356-.713.223-1.421.454-2.125.692-2.499.846-4.937,1.778-7.298,2.769-1.084.456-2.151.923-3.2,1.401-.259.117-.52.233-.776.352-.595.275-1.183.554-1.766.834-1.561.752-3.072,1.519-4.533,2.292-.503.266-1,.533-1.49.799-.107.058-.216.116-.321.173-.65.355-1.284.71-1.909,1.064-.52.295-1.033.589-1.536.882-.917.535-1.804,1.064-2.66,1.587-.741.453-1.451.897-2.143,1.336-1.07.678-2.087,1.338-3.031,1.969-1.528,1.021-2.891,1.97-4.057,2.806.572.643,1.141,1.346,1.703,2.093.06.08.121.152.18.233Z"/>
      </g>
      <g>
        <g>
          <path class="cls-1" d="m168.956,124.095l2.633-18.905h.564c2.069,13.355,10.158,21.444,21.632,21.444,7.618,0,12.603-4.232,12.603-11.474,0-5.361-2.822-8.559-9.876-11.568l-11.944-5.361c-9.405-4.232-14.39-10.346-14.39-19.187,0-10.534,7.619-19.093,23.137-19.093,6.396,0,14.108,1.599,20.221,4.891l-3.104,17.588h-.564c-2.163-13.167-9.123-19.657-19.563-19.657-8.089,0-12.509,4.044-12.509,9.876,0,5.267,2.727,8.088,10.251,11.474l12.885,6.019c9.687,4.326,13.543,9.781,13.543,18.246,0,12.509-9.123,21.162-23.513,21.162-8.371,0-15.989-2.069-22.008-5.455Z"/>
          <path class="cls-1" d="m255.765,70.955v46.932c0,5.831,1.693,8.371,6.772,9.123v.658h-25.958v-.658c5.079-.752,6.772-2.445,6.772-9.123v-46.932c0-5.737-1.599-7.618-6.772-8.465v-.658h25.958v.658c-5.173.846-6.772,3.104-6.772,8.465Z"/>
          <path class="cls-1" d="m285.297,124.095l2.633-18.905h.564c2.069,13.355,10.158,21.444,21.632,21.444,7.618,0,12.603-4.232,12.603-11.474,0-5.361-2.822-8.559-9.875-11.568l-11.945-5.361c-9.405-4.232-14.39-10.346-14.39-19.187,0-10.534,7.618-19.093,23.136-19.093,6.396,0,14.108,1.599,20.221,4.891l-3.104,17.588h-.564c-2.163-13.167-9.123-19.657-19.563-19.657-8.088,0-12.509,4.044-12.509,9.876,0,5.267,2.727,8.088,10.251,11.474l12.885,6.019c9.687,4.326,13.543,9.781,13.543,18.246,0,12.509-9.123,21.162-23.513,21.162-8.371,0-15.989-2.069-22.008-5.455Z"/>
          <path class="cls-1" d="m354.612,124.095l2.633-18.905h.564c2.069,13.355,10.158,21.444,21.632,21.444,7.618,0,12.603-4.232,12.603-11.474,0-5.361-2.822-8.559-9.875-11.568l-11.945-5.361c-9.405-4.232-14.39-10.346-14.39-19.187,0-10.534,7.618-19.093,23.136-19.093,6.396,0,14.108,1.599,20.221,4.891l-3.104,17.588h-.564c-2.163-13.167-9.123-19.657-19.563-19.657-8.088,0-12.509,4.044-12.509,9.876,0,5.267,2.727,8.088,10.251,11.474l12.885,6.019c9.687,4.326,13.543,9.781,13.543,18.246,0,12.509-9.123,21.162-23.513,21.162-8.371,0-15.989-2.069-22.008-5.455Z"/>
          <path class="cls-1" d="m441.421,70.955v46.932c0,5.831,1.693,8.371,6.772,9.123v.658h-25.958v-.658c5.079-.752,6.772-2.445,6.772-9.123v-46.932c0-5.737-1.599-7.618-6.772-8.465v-.658h25.958v.658c-5.173.846-6.772,3.104-6.772,8.465Z"/>
        </g>
        <g>
          <path class="cls-1" d="m198.016,146.931c-.084.506-.235.956-.452,1.352-.218.396-.484.726-.8.991-.316.264-.678.465-1.088.6-.409.136-.845.204-1.308.204-.356,0-.691-.041-1.007-.123-.316-.082-.618-.207-.909-.376s-.547-.365-.772-.589c-.318-.327-.547-.676-.687-1.046-.141-.369-.227-.77-.26-1.203-.033-.432-.049-1.054-.049-1.863,0-.622.009-1.116.025-1.481.016-.365.053-.699.112-1.003.058-.304.154-.588.287-.852.134-.264.324-.523.572-.776.356-.355.76-.626,1.214-.81.454-.184.945-.277,1.473-.277.959,0,1.762.271,2.41.815.648.544,1.061,1.321,1.238,2.332h-1.586c-.121-.537-.359-.963-.712-1.278-.353-.315-.803-.473-1.351-.473-.3,0-.581.054-.846.161s-.488.259-.67.455c-.136.15-.241.3-.316.452-.075.152-.136.353-.183.602-.047.25-.078.531-.095.844s-.024.743-.024,1.289c0,.542.008.968.024,1.278.016.311.048.592.095.844s.108.452.183.599c.075.147.18.302.316.466.183.192.406.342.67.452s.546.165.846.165c.369,0,.694-.072.975-.217.28-.145.514-.35.701-.616.187-.266.32-.572.4-.918h1.572Z"/>
          <path class="cls-1" d="m207.424,149.994h-6.491v-10.23h1.565v8.834h4.925v1.396Z"/>
          <path class="cls-1" d="m212.574,136.438l-1.6,2.329h-1.102l1.074-2.329h1.628Zm-.961,13.556h-1.565v-10.23h1.565v10.23Z"/>
          <path class="cls-1" d="m222.845,149.994h-1.425l-4.722-7.199v7.199h-1.565v-10.23h1.431l4.729,7.185v-7.185h1.551v10.23Z"/>
          <path class="cls-1" d="m227.938,149.994h-1.565v-10.23h1.565v10.23Z"/>
          <path class="cls-1" d="m238.427,146.931c-.084.506-.235.956-.452,1.352-.217.396-.484.726-.8.991-.316.264-.678.465-1.087.6s-.845.204-1.309.204c-.355,0-.691-.041-1.007-.123s-.618-.207-.909-.376c-.29-.168-.547-.365-.772-.589-.318-.327-.548-.676-.688-1.046-.14-.369-.227-.77-.259-1.203-.033-.432-.049-1.054-.049-1.863,0-.622.008-1.116.025-1.481.016-.365.054-.699.112-1.003.058-.304.154-.588.287-.852s.324-.523.572-.776c.356-.355.76-.626,1.214-.81.454-.184.945-.277,1.473-.277.959,0,1.762.271,2.41.815.648.544,1.061,1.321,1.238,2.332h-1.586c-.122-.537-.359-.963-.712-1.278-.353-.315-.804-.473-1.351-.473-.3,0-.581.054-.846.161-.264.107-.487.259-.67.455-.136.15-.241.3-.316.452-.075.152-.136.353-.183.602-.047.25-.078.531-.095.844s-.025.743-.025,1.289c0,.542.008.968.025,1.278.016.311.048.592.095.844.047.252.107.452.183.599.074.147.18.302.316.466.183.192.406.342.67.452.264.11.546.165.846.165.369,0,.694-.072.975-.217.281-.145.514-.35.701-.616.187-.266.32-.572.4-.918h1.571Z"/>
          <path class="cls-1" d="m248.888,149.994h-1.654l-.701-2.056h-4.038l-.701,2.056h-1.655l3.751-10.23h1.248l3.751,10.23Zm-2.79-3.375l-1.549-4.54-1.592,4.54h3.141Z"/>
          <path class="cls-1" d="m262.786,144.809v.512c0,.552-.021,1.034-.063,1.445-.042.412-.139.816-.291,1.214-.152.398-.381.748-.685,1.052-.642.641-1.524.961-2.648.961h-3.596v-10.23h3.596c1.124,0,2.006.32,2.648.961.304.304.533.645.685,1.024.152.379.249.765.291,1.158.042.393.063.854.063,1.382v.519Zm-1.551.004c0-.589-.009-1.043-.028-1.363s-.069-.62-.151-.901-.205-.512-.369-.694c-.421-.463-1.001-.694-1.74-.694h-1.88v7.437h1.88c.744,0,1.324-.229,1.74-.687.244-.266.396-.628.456-1.087.061-.458.091-1.128.091-2.012Z"/>
          <path class="cls-1" d="m272.482,149.994h-6.547v-10.23h6.547v1.396h-4.982v2.982h4.252v1.382h-4.252v3.073h4.982v1.396Z"/>
          <path class="cls-1" d="m288.815,149.994h-1.565v-6.841l-2.348,4.989h-1.149l-2.411-4.989v6.841h-1.565v-10.23h1.565l2.986,6.364,2.922-6.364h1.565v10.23Z"/>
          <path class="cls-1" d="m298.868,149.994h-6.547v-10.23h6.547v1.396h-4.982v2.982h4.252v1.382h-4.252v3.073h4.982v1.396Z"/>
          <path class="cls-1" d="m309.133,144.809v.512c0,.552-.021,1.034-.063,1.445s-.139.816-.291,1.214-.381.748-.685,1.052c-.642.641-1.524.961-2.648.961h-3.596v-10.23h3.596c1.123,0,2.006.32,2.648.961.304.304.533.645.685,1.024.152.379.249.765.291,1.158s.063.854.063,1.382v.519Zm-1.551.004c0-.589-.009-1.043-.028-1.363-.019-.32-.069-.62-.151-.901-.082-.28-.205-.512-.369-.694-.421-.463-1.001-.694-1.74-.694h-1.88v7.437h1.88c.744,0,1.324-.229,1.74-.687.243-.266.395-.628.456-1.087.06-.458.091-1.128.091-2.012Z"/>
          <path class="cls-1" d="m313.847,149.994h-1.565v-10.23h1.565v10.23Z"/>
          <path class="cls-1" d="m324.336,146.931c-.084.506-.235.956-.452,1.352-.218.396-.484.726-.8.991-.316.264-.678.465-1.088.6-.409.136-.845.204-1.308.204-.356,0-.691-.041-1.007-.123-.316-.082-.618-.207-.909-.376s-.547-.365-.772-.589c-.318-.327-.547-.676-.687-1.046-.141-.369-.227-.77-.26-1.203-.033-.432-.049-1.054-.049-1.863,0-.622.009-1.116.025-1.481.016-.365.053-.699.112-1.003.058-.304.154-.588.287-.852.134-.264.324-.523.572-.776.356-.355.76-.626,1.214-.81.454-.184.945-.277,1.473-.277.959,0,1.762.271,2.41.815.648.544,1.061,1.321,1.238,2.332h-1.586c-.121-.537-.359-.963-.712-1.278-.353-.315-.803-.473-1.351-.473-.3,0-.581.054-.846.161s-.488.259-.67.455c-.136.15-.241.3-.316.452-.075.152-.136.353-.183.602-.047.25-.078.531-.095.844s-.024.743-.024,1.289c0,.542.008.968.024,1.278.016.311.048.592.095.844s.108.452.183.599c.075.147.18.302.316.466.183.192.406.342.67.452s.546.165.846.165c.369,0,.694-.072.975-.217.28-.145.514-.35.701-.616.187-.266.32-.572.4-.918h1.572Z"/>
          <path class="cls-1" d="m328.818,149.994h-1.565v-10.23h1.565v10.23Z"/>
          <path class="cls-1" d="m340.051,149.994h-1.425l-4.722-7.199v7.199h-1.565v-10.23h1.431l4.729,7.185v-7.185h1.551v10.23Z"/>
          <path class="cls-1" d="m351.122,149.994h-1.654l-.701-2.056h-4.038l-.701,2.056h-1.655l3.751-10.23h1.248l3.751,10.23Zm-2.79-3.375l-1.549-4.54-1.592,4.54h3.141Z"/>
          <path class="cls-1" d="m364.283,149.994h-6.547v-10.23h6.547v1.396h-4.982v2.982h4.252v1.382h-4.252v3.073h4.982v1.396Z"/>
          <path class="cls-1" d="m373.67,147.075c0,.454-.089.869-.266,1.246-.178.376-.434.697-.768.961s-.724.463-1.168.597c-.445.133-.936.2-1.473.2-.781,0-1.461-.105-2.038-.314-.578-.209-1.108-.556-1.589-1.04l1.039-1.025c.229.234.48.426.754.575.273.15.565.255.873.316.309.061.638.091.989.091.66,0,1.176-.137,1.55-.413.374-.275.562-.66.562-1.155,0-.462-.136-.815-.407-1.058-.121-.121-.263-.213-.425-.277s-.392-.116-.691-.158l-1.207-.168c-.833-.117-1.481-.39-1.944-.821-.496-.463-.744-1.113-.744-1.95,0-.594.138-1.117.414-1.571.276-.454.671-.805,1.186-1.056s1.12-.375,1.817-.375c.688,0,1.282.093,1.782.278s.966.481,1.396.885l-.996.983c-.206-.201-.426-.359-.66-.474-.234-.114-.477-.196-.73-.246-.252-.049-.531-.074-.835-.074-.388,0-.722.068-1.003.203s-.495.323-.642.564-.221.515-.221.823c0,.406.128.724.385.953.127.107.293.204.498.291.206.087.424.146.653.179l1.165.175c.468.07.85.165,1.147.284s.551.277.761.473c.557.486.835,1.186.835,2.098Z"/>
          <path class="cls-1" d="m382.889,141.16h-2.813v8.834h-1.551v-8.834h-2.82v-1.396h7.185v1.396Z"/>
          <path class="cls-1" d="m392.059,149.994h-6.547v-10.23h6.547v1.396h-4.982v2.982h4.252v1.382h-4.252v3.073h4.982v1.396Zm-1.446-13.556l-1.6,2.329h-1.101l1.073-2.329h1.628Z"/>
          <path class="cls-1" d="m401.327,141.16h-2.813v8.834h-1.551v-8.834h-2.82v-1.396h7.185v1.396Z"/>
          <path class="cls-1" d="m405.515,149.994h-1.565v-10.23h1.565v10.23Z"/>
          <path class="cls-1" d="m416.004,146.931c-.084.506-.235.956-.452,1.352-.218.396-.484.726-.8.991-.316.264-.678.465-1.088.6-.409.136-.845.204-1.308.204-.356,0-.691-.041-1.007-.123-.316-.082-.618-.207-.909-.376s-.547-.365-.772-.589c-.318-.327-.547-.676-.687-1.046-.141-.369-.227-.77-.26-1.203-.033-.432-.049-1.054-.049-1.863,0-.622.009-1.116.025-1.481.016-.365.053-.699.112-1.003.058-.304.154-.588.287-.852.134-.264.324-.523.572-.776.356-.355.76-.626,1.214-.81.454-.184.945-.277,1.473-.277.959,0,1.762.271,2.41.815.648.544,1.061,1.321,1.238,2.332h-1.586c-.121-.537-.359-.963-.712-1.278-.353-.315-.803-.473-1.351-.473-.3,0-.581.054-.846.161s-.488.259-.67.455c-.136.15-.241.3-.316.452-.075.152-.136.353-.183.602-.047.25-.078.531-.095.844s-.024.743-.024,1.289c0,.542.008.968.024,1.278.016.311.048.592.095.844s.108.452.183.599c.075.147.18.302.316.466.183.192.406.342.67.452s.546.165.846.165c.369,0,.694-.072.975-.217.28-.145.514-.35.701-.616.187-.266.32-.572.4-.918h1.572Z"/>
          <path class="cls-1" d="m426.465,149.994h-1.654l-.701-2.056h-4.038l-.701,2.056h-1.654l3.751-10.23h1.248l3.751,10.23Zm-2.79-3.375l-1.549-4.54-1.591,4.54h3.141Z"/>
        </g>
      </g>
    </g>
  </g>
</svg>