<?xml version="1.0" encoding="UTF-8"?>
<svg id="Capa_2" data-name="Capa 2" xmlns="http://www.w3.org/2000/svg" viewBox="0 0 163.274 165.1">
  <defs>
    <style>
      .cls-1 {
        fill: #01b8cd;
      }
    </style>
  </defs>
  <g id="Capa_1-2" data-name="Capa 1">
    <g>
      <path class="cls-1" d="m112.09,7.593c-.414.926-.844,2.053-1.229,3.373,29.665,11.05,48.806,38.982,48.806,72.498,0,43.095-34.935,78.03-78.03,78.03S3.607,126.558,3.607,83.464,38.542,5.434,81.637,5.434c3.812,0,6.36.271,10.026.799.32-.68.606-1.377.818-2.101-.091-.171-.147-.277-.238-.448-.572-.131-1.071-.548-1.294-1.158-.002-.005.003-.073.001-.078-3.442-.444-5.753-.621-9.314-.621C36.622,1.827,0,38.449,0,83.464s36.622,81.637,81.637,81.637,81.637-36.622,81.637-81.637c0-35.009-20.162-64.293-51.184-75.871Z"/>
      <path class="cls-1" d="m92.144,2.541c.223.61.722,1.027,1.294,1.158.091.171.147.277.238.448-.213.725-.498,1.421-.818,2.101-1.06,2.254-2.682,4.224-4.775,5.647-.813.553-1.686,1.033-2.632,1.407-.882.349-1.779.572-2.677.723-1.377.232-2.754.245-4.095.046-1.882-.28-3.681-.961-5.285-1.993-.086-.056-.179-.099-.264-.156,0-.004,0-.005,0-.009.62-.571.823-1.551.342-2.38-.357-.616-1.055-.966-1.745-.875-1.184.157-1.869,1.373-1.503,2.474.208.625.709,1.044,1.287,1.186.039.009.075.029.114.036.095.147.163.251.258.398-.121.685-.303,1.352-.518,2.008-1.267,3.868-4.114,7.153-8.078,8.718-4.545,1.794-9.443.899-13.062-1.92,0-.002,0-.003,0-.004.008-.009.012-.021.02-.03.508-.57.668-1.435.253-2.196-.094-.173-.218-.322-.357-.452-.379-.354-.897-.54-1.414-.472-1.027.135-1.677,1.067-1.593,2.031.013.148.04.296.089.443.244.732.884,1.206,1.587,1.253.002.002.003.003.005.006-.004.044-.016.087-.02.131-.5,5.176-3.734,9.889-8.74,11.866-1.204.475-2.432.757-3.654.869-1.267.117-2.526.037-3.746-.205.018-.171.007-.347-.021-.522-.045-.278-.146-.556-.34-.817-.362-.486-.944-.749-1.531-.711-.051.003-.101-.006-.152.002-.912.146-1.512.924-1.547,1.78-.013.302.042.614.184.911.257.541.765.894,1.322.992.227.04.459.049.69-.006.49-.115.87-.423,1.115-.817.545.152,1.439.44,2.575.949,1.994.893,4.713,2.465,7.504,5.149.464.447.93.925,1.395,1.435.675.74,2.843,2.921,3.271,3.172-.64.706-1.22,1.461-1.728,2.264-3.98,6.589-4.077,14.461-4.083,21.87.012.424.039.848.058,1.272-.138,1.139-.056,2.332.232,3.516.023.253.037.507.063.759.045.161.094.32.139.48-.52,1.565-.702,3.181-.562,4.786.068.781.207,1.558.424,2.325.103.362.228.719.363,1.074.098.258.206.513.322.767-1.307,2.145-2.224,4.517-2.686,6.997-.095.512-.169,1.029-.226,1.549-.009.089-.022.177-.031.266-.024.25-.04.5-.055.75-.979,1.217-1.75,2.876-2.327,5.002-1.32,4.856-1.669,9.989-1.037,14.987-1.139,3.271-1.422,6.897-.668,10.374.493,2.27,1.394,4.441,2.625,6.437-.218,1.948-.116,3.917.266,5.83-15.858-12.742-26.036-32.28-26.036-54.159,0-18.126,6.12-33.473,17.531-45.855-.557-.099-1.065-.451-1.322-.992-.141-.297-.196-.608-.184-.911-11.959,12.841-18.43,28.868-18.43,47.758,0,23.887,11.724,45.077,29.71,58.153.37.832.79,1.644,1.283,2.418,2.215,3.479,5.558,6.14,9.403,7.557.952,1.126,1.996,2.197,3.144,3.147l5.484,3.053c2.018.664,4.264,1.01,6.667,1.01.685,0,1.383-.028,2.092-.083.982-.077,1.959-.203,2.925-.363.104.054.205.113.309.166,1.865.931,3.87,1.543,5.92,1.847.896.133,1.801.208,2.707.218.079,0,.157.007.236.007,1.984,0,3.967-.295,5.866-.892,1.476-.464,2.881-1.115,4.196-1.91.098-.059.2-.112.297-.173.422.07.846.121,1.27.173.711.086,1.424.155,2.14.186.373.016.744.024,1.112.024.574,0,1.139-.025,1.695-.068.823-.063,1.632-.236,2.407-.519l6.704-2.447c.417-.152.816-.354,1.174-.617.36-.265.708-.544,1.038-.84,1.465-1.319,2.622-2.891,3.61-4.541,24.946-11.285,42.357-36.392,42.357-65.505,0-30.415-17.018-56.046-43.765-66.521-.036.485-.073.969-.088,1.479-.01.347-.005.71-.004,1.069,25.44,10.323,41.452,34.872,41.452,63.973,0,27.325-15.864,51.005-38.861,62.341-.127-.087-.251-.178-.38-.263.008-.03.015-.059.022-.089.036-.154.072-.305.101-.471.133-.74.198-1.586.132-2.499-.054-.755-.195-1.553-.476-2.382-1.224-3.624-4.558-6.563-9.91-8.734-4.168-1.691-7.668-3.805-10.452-5.827-.988-3.844-1.671-8.529-1.159-13.39.877-8.332,8.746-12.59,13.028-14.307.676.312,1.356.616,2.045.9,3.609,1.44,7.34,2.542,11.227,3.01,1.969.149,4.164.45,6.126-.213,3.376-1.635,3.319-7.476,3.055-11.255.277.047.556.083.834.1.076.004.152.007.228.007,1.624,0,3.097-1.05,3.555-2.566.195-.645.128-1.221-.154-1.676.376-.137.707-.302.99-.5.751-.524,1.153-1.385,1.076-2.304-.078-.949-.639-1.758-1.497-2.166-.272-.13-.55-.23-.831-.318l-.117-2.676c.353-.363.75-.764,1.158-1.177.889-.898,1.808-1.828,2.489-2.575.702-.848,1-1.945.841-3.086-.169-1.202-.82-2.275-1.79-2.947-3.184-2.738-5.037-5.688-5.507-8.769-.145-.991-.192-1.876-.138-2.644.009-.504.09-1.12.17-1.716.046-.35.091-.691.12-.996.511-4.67-.569-9.632-3.142-14.371l-.858-1.271.422.252c.033-.056.289-.493.587-1.161.719-1.609,1.698-4.593.484-7.052-.955-1.934-2.996-3.092-6.068-3.445-.459-.053-.912-.064-1.36-.039-1.056-1.156-4.18-4.182-8.411-4.777-.324-.359-.615-.681-.939-1.04-.055-.791-.074-1.55-.076-2.293-.001-.359-.006-.722.004-1.069.015-.51.052-.994.088-1.479.013-.171.016-.354.031-.522.199-2.172.602-4.063,1.076-5.68.385-1.32.815-2.447,1.229-3.373.18-.403.358-.782.524-1.107.175-.341.337-.635.485-.889.543.303,1.229.327,1.83-.066.596-.391.925-1.133.815-1.853-.187-1.216-1.377-1.883-2.427-1.468-.933.368-1.403,1.449-1.049,2.415.033.089.077.17.12.25-.512.329-1.048.631-1.613.891-.232.108-.463.225-.709.306-.436.143-.857.268-1.269.382-5.547,1.536-8.998.519-11.511-2.085-.144-.106-.283-.22-.422-.332.156-.114.286-.256.398-.41.422-.579.514-1.389.109-2.091-.368-.635-1.094-.989-1.801-.873-1.174.193-1.821,1.419-1.434,2.504.002.005.002.011.004.016Zm-48.165,57.092c.568-4.287,1.813-8.637,4.637-11.813.593-.666,1.25-1.285,1.991-1.836.112-.123.239-.235.356-.353.118-.568.278-1.127.471-1.675.406-.29.835-.591,1.279-.899,1.165-.81,4.756-3.012,5.19-3.294-.066,1.551.078,3.122.463,4.667.337,1.377.716,2.629.645,3.734-.41,3.453-4.004,4.558-6.878,6.098-.529.284-1.037.58-1.492.91-.141.097-.279.199-.417.299-3.09,2.241-5.409,5.453-6.69,9.039.094-1.634.238-3.263.446-4.877Zm17.115-12.281c-.175-2.286-1.209-4.646-1.073-7.229.01-.642.066-1.281.161-1.914,2.374-1.437,8.284-4.391,8.767-4.684-.315,1.438-.57,2.883-.819,4.309-.558,3.189-1.134,6.485-2.39,9.437-1.293,3.037-3.323,5.774-5.286,8.421l-4.269,5.758-3.484,4.697c-4.564,1.986-7.284,4.431-8.894,6.565.031-.954.13-1.9.304-2.828.237-1.262.602-2.496,1.103-3.679.156-.529.343-1.048.547-1.56,1.009-2.528,2.596-4.824,4.65-6.603.454-.393.923-.77,1.422-1.109.225-.156.458-.3.695-.442,1.491-.891,3.154-1.541,4.667-2.488.645-.404,1.263-.86,1.826-1.415,1.831-1.749,2.209-3.471,2.075-5.237Zm27.577-21.716c-.717.694-1.439,1.455-2.176,2.298-4.27,4.876-7.56,10.553-10.742,16.044l-.71,1.225c-3.49,6.009-7.01,11.791-11.693,16.494-.645.648-1.305,1.263-1.976,1.846-.161.031-.325.062-.484.094-1.152.235-2.233.497-3.253.781-.34.094-.679.19-1.005.289-.097.029-.188.062-.284.092l.239-.324,5.573-7.515c2.037-2.747,4.144-5.586,5.535-8.855,1.352-3.177,1.949-6.597,2.527-9.904.369-2.116.732-4.16,1.265-6.123,1.372-.655,12.877-5.689,17.195-6.463-.004.008-.009.015-.013.023Zm.707,2.306c1.358-1.409,2.67-2.532,3.994-3.424.149-.03.297-.059.446-.088.505-.099,1.01-.194,1.518-.282,1.973-.342,6.336-.876,6.949-.574-2.062,1.09-4.028,2.876-5.876,5.353-2.213,2.967-4.1,6.052-5.842,9.147-.765,1.359-1.504,2.719-2.228,4.072-.05.174-.104.347-.171.519-.239.617-.586,1.176-1.004,1.689-.845,1.593-1.671,3.141-2.495,4.624-3.457,6.212-6.93,11.254-11.987,13.364-.114.003-.221.01-.334.014-.777.028-1.534.066-2.273.112-1.768.11-3.422.272-4.98.475,4.739-4.834,8.285-10.643,11.787-16.673l.711-1.226c3.131-5.402,6.368-10.988,10.502-15.709.434-.496.86-.953,1.283-1.392Zm-46.074,51.889c.011-.235.033-.469.06-.703.059-.501.161-1,.299-1.496.087-.312.185-.623.303-.932.064-.163.135-.321.206-.481.574-1.297,1.412-2.502,2.491-3.608.874-.896,1.907-1.727,3.089-2.488.207-.134.424-.262.641-.392,1.096-.655,2.308-1.255,3.629-1.796.82-.336,1.683-.649,2.585-.939.211-.068.418-.138.634-.204.228-.069.46-.137.694-.204.891-.254,1.818-.487,2.779-.698.496-.109,1.013-.205,1.527-.303.211-.04.412-.086.625-.124,2.038-.362,4.205-.633,6.495-.809.748-.057,1.51-.103,2.283-.14,1.126-.053,2.275-.087,3.453-.096,17.623-.133,27.809-5.913,33.25-10.739,1.469-1.302,2.676-2.599,3.669-3.822-.045.335-.089.671-.13,1.014-.25.465-1.078,1.938-2.502,3.927-.081.114-.165.23-.251.347-4.796,6.572-15.77,18.152-33.625,18.32-.71.006-1.43-.002-2.163-.032-.151-.006-.298-.006-.448-.011-2.053-.068-4.004-.008-5.85.18-1.597.163-3.116.419-4.554.771-.712.174-1.402.375-2.074.595-.152.05-.304.101-.454.153-3.204,1.116-5.952,2.764-8.215,4.952-.746.72-1.403,1.468-1.99,2.228-.446.577-.85,1.16-1.214,1.745-.834,1.339-1.467,2.68-1.946,3.951-.719-.766-1.319-1.577-1.808-2.418-.184-.317-.356-.639-.506-.964-.193-.415-.356-.836-.493-1.26-.118-.362-.217-.727-.292-1.093-.063-.307-.103-.615-.136-.924-.014-.131-.029-.261-.038-.391-.026-.372-.038-.745-.021-1.118Zm14.399,14.149l7.244,1.109c.32.049.637.096.953.143-.163.546-.383,1.12-.663,1.722-2.225,4.777-6.378,8.625-11.25,10.665-.447.187-.899.362-1.358.518.477-.581.924-1.17,1.337-1.768,1.949-2.813,3.188-5.781,3.626-8.73.181-1.229.214-2.459.112-3.66Zm7.565-.992l-7.917-1.213-1.411-.216c.013-.013.022-.026.035-.038-.033.01-.068.018-.101.028l-.809-.124c-.006-.02-.013-.039-.018-.058.502-.595,1.078-1.092,1.72-1.509,1.606-1.042,3.618-1.578,5.906-1.848.241-.028.484-.055.729-.078.005,0,.01,0,.015,0,.492-.046.994-.081,1.507-.108.2-.011.401-.02.604-.029,1.508-.062,3.094-.066,4.729-.066.021,0,.041,0,.061,0h.424c.614,0,1.208-.009,1.793-.021,3.38-.074,6.276-.35,8.722-.724,1.613-.246,3.029-.534,4.258-.835.189-.046.374-.092.553-.139.009.008.019.017.028.026.013-.014.025-.028.038-.042.699-.182,1.333-.367,1.9-.548.123-.039.242-.078.36-.117.185-.062.356-.122.526-.181-.108.252-.222.501-.342.747-.24.487-.509.959-.801,1.416-.024.037-.045.076-.07.113-.014.021-.026.044-.04.065-1.279,1.939-3.011,3.569-5.058,4.612-4.153,2.117-8.937,2.011-14.25,1.328-.694-.089-1.396-.187-2.108-.292-.325-.048-.651-.097-.98-.147Zm23.004-9.88c-.297.104-.621.213-.972.323-.015.005-.028.009-.043.014-.352.11-.73.222-1.136.335-.551.152-1.155.304-1.809.453-.015.003-.027.006-.041.01-2.777.629-6.48,1.182-11.19,1.323-.702.021-1.425.033-2.172.034-.057,0-.112.001-.169.001h-.213c-1.109,0-2.203.007-3.285.024-.517.009-1.036.014-1.544.033-.134.005-.269.01-.404.016-.597.026-1.186.063-1.765.111-.13.011-.262.022-.391.034-.006,0-.01.001-.015.001-2.755.261-5.257.833-7.296,2.072-.611.371-1.18.804-1.701,1.304-.213.205-.42.416-.617.644-.035.04-.065.083-.099.124-.239.287-.467.591-.679.918-.038.059-.076.12-.113.181-.01-.001-.021-.003-.031-.004-.394-.053-.789-.103-1.186-.149-.467-.054-.935-.104-1.407-.142-.073-.006-.147-.009-.221-.015-.174-.13-.345-.249-.523-.388-.31-.243-.624-.498-.944-.77.142-.43.306-.874.488-1.326.887-2.199,2.275-4.589,4.452-6.686.161-.155.331-.302.498-.451,2.005-1.795,4.411-3.162,7.205-4.097.121-.041.242-.081.364-.12.667-.212,1.357-.399,2.067-.563,1.857-.428,3.86-.689,6.004-.786.32-.014.64-.028.965-.035.711-.015,1.437-.011,2.176.009.244.006.483.008.73.018.03.001.061.001.091.003,1.896.075,3.719.025,5.471-.127.89-.077,1.762-.182,2.616-.31,10.226-1.543,17.776-6.605,22.632-11.069,3.195-2.937,5.569-5.888,7.182-8.174-.363,2.426-.887,4.957-1.828,7.523-.186.507-.387,1.015-.608,1.524-2.256,5.2-6.44,10.492-14.718,15.315-.642.375-1.319.745-2.011,1.113-.306.163-.607.326-.923.487-.1.051-.198.103-.299.154l-.065.035c-.014.008-.36.205-1.048.501-.385.165-.873.361-1.476.574Zm-46.752,11.336c.018-.193.043-.384.068-.576.035-.262.074-.523.119-.784.097-.553.217-1.102.364-1.646.359-1.327.865-2.619,1.504-3.841.546.799,1.176,1.568,1.902,2.289.129.129.255.259.391.385.021.019.039.04.06.06.14.129.279.251.418.375.262.231.52.456.778.672.19.16.38.314.568.465.237.189.47.36.703.536-.128.128-.259.257-.384.385-.01.01-.02.021-.029.032-2.412,2.494-4.356,5.415-5.79,8.577-.518-1.795-.775-3.666-.746-5.52.008-.471.03-.942.075-1.41Zm-2.447,6.107c.139-.511.292-.975.452-1.418.26,1.806.755,3.574,1.476,5.254-.447,1.329-.807,2.688-1.078,4.064-.785.824-1.487,1.73-2.098,2.702-.1-3.571.313-7.159,1.249-10.6Zm68.386,49.966c-.419.497-.857.977-1.339,1.411-1.343,1.208-2.966,2.147-4.791,2.809-1.713.62-3.603.997-5.624,1.101-.72.037-1.453.045-2.202.013-.089-.003-.176-.011-.264-.016-.257-.014-.514-.029-.771-.051.145-.126.29-.251.432-.381.234-.216.46-.44.682-.667.158-.161.308-.331.46-.497.116-.125.236-.247.348-.375.673-.772,1.261-1.612,1.805-2.482.232-.372.477-.735.683-1.123l-1.878-.996c-.506.955-1.118,1.846-1.794,2.684-.08.099-.149.207-.231.305-.457.544-.947,1.06-1.468,1.544-.355.33-.727.641-1.108.941-.024.018-.048.034-.071.053-.256.2-.514.399-.781.584-.848.588-1.751,1.101-2.693,1.531-.644.293-1.303.553-1.981.766-.137.044-.277.079-.414.119-2.121.608-4.348.801-6.541.589-1.011-.098-2.014-.278-2.996-.546-.048-.013-.095-.029-.143-.043-.217-.062-.433-.124-.648-.194.175-.042.351-.083.524-.126.752-.188,1.488-.384,2.21-.581.562-.153,1.116-.307,1.657-.457l-.331-1.186-.142-.509-.098-.353c-.415.116-.856.234-1.285.353-.386.106-.761.212-1.156.317-.004,0-.006.002-.01.003-.738.196-1.494.386-2.258.566-.797.187-1.603.357-2.417.507-1.091.2-2.193.361-3.294.454-.049.004-.098.011-.147.015-3.883.305-7.388-.3-10.133-1.747-.067-.036-.131-.078-.198-.114-1.096-.602-2.098-1.342-3.026-2.177,1.145.163,2.299.232,3.448.232,1.464,0,2.917-.111,4.336-.262,1.158-.123,2.295-.272,3.387-.418l-.162-1.203-.121-.905c-.73.098-1.467.192-2.205.282-1.103.134-2.208.255-3.314.321-.717.043-1.433.065-2.148.059-.404-.004-.805-.038-1.208-.061-.967-.056-1.929-.151-2.878-.352-.593-.126-1.178-.291-1.754-.485-1.467-.492-2.87-1.196-4.158-2.074-1.318-.9-2.505-1.987-3.518-3.208-.424-.511-.825-1.039-1.18-1.596-.622-.977-1.131-2.03-1.533-3.127-.607-1.658-.962-3.418-1.04-5.186.976,1.141,2.069,2.198,3.273,3.143.592.466,1.212.903,1.853,1.313.782.501,1.596.961,2.443,1.371l.926-1.914c-.982-.476-1.92-1.032-2.811-1.65-.647-.45-1.268-.933-1.858-1.448-1.402-1.222-2.63-2.618-3.644-4.128-.587-.873-1.1-1.784-1.532-2.724-.543-1.177-.965-2.395-1.235-3.638-.557-2.571-.478-5.23.14-7.721.169-.677.379-1.34.627-1.988.336-.88.742-1.726,1.218-2.527-.191,3.079.065,6.18.812,9.172l2.062-.515c-.345-1.379-.574-2.783-.701-4.197-.06-.677-.099-1.355-.11-2.035-.032-1.879.118-3.763.444-5.617.085-.486.184-.969.294-1.451.071-.313.147-.625.228-.935.248-.954.542-1.897.882-2.821,1.374-3.727,3.485-7.176,6.247-10.024.195-.201.397-.401.598-.6.012-.011.023-.023.034-.034.095-.095.189-.19.285-.285.002-.003.005-.005.006-.007.112-.111.224-.223.337-.335.103.011.205.024.308.036.157.018.315.036.473.056.016.002.032.004.048.006.204.025.406.052.609.079.518.07,1.035.144,1.548.221.004,0,.008.001.012.002.223.033.443.067.665.101.073.011.146.022.219.034l.855.131c.146,1.197.137,2.438-.047,3.681-.27,1.825-.895,3.668-1.84,5.477-.516.986-1.129,1.961-1.833,2.917-.528.716-1.104,1.423-1.732,2.115-.367.404-.745.795-1.13,1.178-.062.009-.125.023-.188.031l.018.132c-.9.883-1.845,1.716-2.825,2.517.166.786.309,1.575.442,2.366,1.223-.962,2.416-1.977,3.548-3.057.593-.104,1.183-.228,1.766-.38-.338,3.426-1.233,6.802-2.643,9.937-.241.534-.497,1.061-.767,1.581-.346.665-.717,1.315-1.111,1.951-.639,1.031-1.338,2.025-2.1,2.969-.052-.04-.103-.079-.154-.118-.915-.684-1.861-1.326-2.837-1.916l-1.1,1.82c1.306.789,2.549,1.681,3.736,2.646.674.548,1.326,1.121,1.958,1.718,1.028.974,2,2.008,2.906,3.101.378.455.742.921,1.096,1.394,1.299,1.735,2.452,3.581,3.42,5.52-1.428-.141-2.841-.14-4.216.021l.248,2.112c1.618-.19,3.297-.136,4.993.14.836.136,1.676.33,2.516.574,3.052.888,6.095,2.473,8.879,4.684.27.214.535.434.797.655-.33.094-.66.188-.987.282l.465,1.626.12.418c.253-.072.509-.143.763-.215.498-.141.994-.283,1.496-.422.787-.218,1.58-.429,2.376-.626,2.295-.569,4.621-1.02,6.96-1.152,1.678-.094,3.772-.035,5.913.47.416.098.833.217,1.249.35.669.215,1.335.482,1.988.804.587.29,1.164.62,1.72,1.01l1.208-1.724.012-.018c-.542-.38-1.101-.713-1.667-1.009.973-1.08,2.214-2.045,3.662-2.818,3.384-1.809,7.361-2.448,11.188-1.798,2.151.365,4.226,1.147,6.117,2.258-.01.019-.023.038-.033.057-.702,1.28-1.497,2.511-2.425,3.614Zm-57.753-19.3c-.865-.923-1.775-1.802-2.728-2.629.016-.183.035-.366.049-.55.731-.933,1.407-1.909,2.028-2.92.406,2.007.625,4.051.652,6.099Zm38.301-19.292c-.433,4.116-.078,8.065.602,11.535.231,1.176.497,2.299.784,3.352.875.654,1.825,1.32,2.848,1.984,2.473,1.605,5.372,3.192,8.692,4.539,4.737,1.921,7.658,4.416,8.684,7.414.419,1.222.458,2.382.343,3.36-.01.086-.026.164-.038.247-.002.018-.007.035-.009.054-1.813-.923-3.757-1.578-5.757-1.918-4.292-.729-8.748-.011-12.548,2.02-1.92,1.027-3.511,2.323-4.702,3.8-.608-.219-1.219-.404-1.826-.552-.49-.12-.975-.216-1.455-.296-1.903-.317-3.713-.349-5.217-.264-2.95.166-5.821.793-8.624,1.538-.622-.569-1.262-1.12-1.924-1.646-3.482-2.764-7.355-4.631-11.209-5.468-1.285-2.847-2.925-5.54-4.865-7.992.217-3.795-.192-7.632-1.206-11.296,1.88-3.866,3.011-8.112,3.32-12.408,5.74-2.134,10.682-6.533,13.264-12.074.375-.808.655-1.581.856-2.325,2.148.278,4.222.47,6.223.47,3.306,0,6.413-.517,9.329-2.004,2.322-1.183,4.273-2.969,5.731-5.094.1.084.196.171.297.254,3.412,2.848,7.089,5.371,11.018,7.435-4.837,2.237-11.719,6.869-12.61,15.337Zm40.689-24.562c-.268.887-1.17,1.487-2.161,1.428-.247-.015-.496-.047-.744-.092-.507-.092-1.013-.242-1.507-.429-1.259-.477-2.438-1.196-3.336-1.829.152-.002.309-.004.466-.006,1.235-.014,2.627-.009,3.87.038.591.023,1.146.056,1.636.101.135.012.265.026.389.04.479.055.877.125,1.144.212.28.092.364.141.244.537Zm1.257-4.746c.339.161.561.482.592.858.014.167.003.584-.399.865-.348.243-1.042.538-2.384.648-.136.011-.275.022-.426.029-.009,0-.017.001-.026.001-.43.019-.842.031-1.238.038-1.927.032-3.437-.074-4.571-.219-.429-.055-.808-.115-1.132-.175,1.683-1.063,4.624-2.611,7.339-2.544.499.012.989.079,1.464.214.266.076.527.165.781.285Zm-4.293-27.132c-.17,1.007-.242,2.033-.205,2.877.029,5.3,3.691,9.324,5.868,11.247l.196.178c.248.222.461.413.628.678.697,1.029.456,2.477-.569,3.315-.459.456-1.077,1.059-1.707,1.672-.711.693-1.437,1.4-1.96,1.922l-.08.08.075,3.084c-4.709-.197-9.669,3.634-9.916,3.83l-.756.594-.261.205.107.099,1.103,1.021c.136.126,2.735,2.499,5.837,3.579.192,3.125.3,10.173-3.03,10.167-4.896.095-10.08-1.203-15.149-3.365-.857-.366-1.711-.758-2.56-1.171-4.456-2.166-8.762-4.945-12.653-7.962.81-1.341,1.544-2.728,2.194-4.157,10.61-5.583,15.611-11.997,18.15-18.152.997.107,2.113.182,3.275.182,3.235,0,6.829-.584,9.192-2.71l-1.068-1.185c-2.645,2.381-7.35,2.485-10.803,2.161,1.201-3.419,1.715-6.726,2.087-9.731,2.813-.427,5.671-.185,8.047,1.42.528.358,1.272.158,1.549-.418.26-.529.042-1.168-.487-1.428-1.265-.621-2.61-.972-3.943-1.085-1.724-.088-3.418.141-5.054.594.027-.223.054-.446.079-.665.323-2.737.614-5.195,1.305-7.264.532-1.04.808-1.773.905-2.051,1.582-2.772,3.21-4.281,4.711-4.362.539-.029,1.02.132,1.427.354,1.239,2.413,4.725,9.974,3.464,16.446Zm-7.445-26.146c2.305.264,3.786,1.027,4.401,2.269.763,1.539.149,3.716-.459,5.125-.451-.129-.944-.2-1.477-.173-2.319.112-4.513,1.97-6.519,5.52-.383.676-.693,1.389-.955,2.135-.988,1.898-2.929,4.938-6.374,7.966-3.402,2.989-8.768,6.367-16.853,8.364,4.066-4.204,7.655-9.621,11.146-14.893,5.785-8.734,11.251-16.987,17.091-16.314Zm-3.623-1.629c-5.458,1.987-10.232,9.206-15.241,16.768-4.134,6.241-8.407,12.687-13.345,16.89-2.706.461-5.671.77-8.916.879,4.835-3.609,8.168-9.771,11.86-16.725.076-.144.152-.285.228-.43.376-.707.754-1.418,1.135-2.13,2.303-4.305,4.748-8.676,7.799-12.766,2.394-3.209,4.94-5.088,7.585-5.614.191-.038.384-.069.577-.093.269-.033.537-.057.807-.063,3.256-.065,6.006,1.917,7.51,3.281Zm-8.806-6.51c-1.086.002-2.171.044-3.254.106-.151.009-.3.023-.451.033-2.662.171-5.31.513-7.925.997-.647.12-1.291.248-1.934.385-.453.096-.906.194-1.357.298-.187.043-.372.09-.559.135-.968.232-1.931.476-2.886.741-2.034.566-4.032,1.207-5.993,1.9-1.575.557-3.125,1.148-4.643,1.769-1.523.623-3.01,1.276-4.464,1.946-.904.415-1.795.838-2.67,1.267-.104.051-.212.101-.316.153-.556.274-1.105.55-1.647.828-2.422,1.24-4.704,2.506-6.834,3.755-.457.268-.915.536-1.356.802-.431.26-.854.517-1.269.774-.476.293-.942.584-1.398.872-1.29.816-2.495,1.606-3.611,2.359-.987.666-1.905,1.302-2.744,1.897-.309.219-.606.432-.894.64-.794.572-1.508,1.1-2.131,1.569-.063-.085-.127-.162-.19-.246-.594-.79-1.194-1.532-1.799-2.211,1.231-.884,2.671-1.887,4.285-2.965.998-.666,2.072-1.364,3.203-2.08.732-.464,1.482-.933,2.265-1.412.904-.552,1.842-1.111,2.81-1.676.53-.31,1.074-.621,1.622-.932.661-.374,1.331-.749,2.017-1.125.112-.061.227-.122.339-.183.518-.282,1.043-.564,1.574-.845,1.544-.816,3.14-1.627,4.789-2.421.616-.297,1.237-.591,1.866-.881.27-.125.546-.248.82-.372,1.108-.504,2.236-.999,3.381-1.48,2.493-1.048,5.07-2.032,7.71-2.926.743-.252,1.492-.495,2.244-.731.404-.127.805-.255,1.211-.377.095-.029.191-.057.286-.085.372-.111.744-.225,1.118-.33,5.85-1.66,11.942-2.786,18.084-3.067.21-.01.419-.026.628-.034-.002.084.001.174,0,.259-.014.929.007,1.893.071,2.896Zm-8.408-14.178c1.346.684,2.867,1.077,4.611,1.109,1.734.032,3.686-.292,5.902-1.043-.309.765-.613,1.631-.894,2.582-.514,1.741-.941,3.789-1.15,6.128-.007.082-.018.161-.025.244-1.94.066-3.87.223-5.787.446-6.237.725-12.321,2.213-18.007,4.097-.762.252-1.511.515-2.257.78-1.03.367-2.051.741-3.051,1.128-.62.24-1.234.483-1.841.73-.638.259-1.262.524-1.886.79-.24.102-.484.202-.722.304-.288.125-.566.252-.849.377-.495.218-.995.435-1.478.656-.506.23-1.003.462-1.497.694-2.261,1.066-4.393,2.144-6.364,3.199-.015.008-.029.016-.043.024-3.211,1.718-6.175,3.459-8.836,5.117-3.683,2.295-6.783,4.431-9.121,6.125-1.922-1.909-3.824-3.315-5.528-4.341.675-.161,1.347-.367,2.012-.63,5.241-2.069,8.735-6.849,9.563-12.209,3.911,2.662,8.962,3.412,13.671,1.554,4.614-1.821,7.849-5.752,9.13-10.322.08-.284.178-.563.242-.852.415.243.846.457,1.282.658,3.517,1.623,7.629,1.871,11.51.339.36-.142.698-.315,1.042-.482,1.176-.572,2.262-1.272,3.225-2.101,1.795-1.543,3.191-3.485,4.13-5.641.178-.409.352-.819.496-1.242.767.715,1.604,1.315,2.521,1.782Z"/>
    </g>
  </g>
</svg>