<?xml version="1.0" encoding="utf-8"?>
<!-- Generator: Adobe Illustrator 25.2.1, SVG Export Plug-In . SVG Version: 6.00 Build 0)  -->
<svg version="1.1" id="Capa_1" xmlns="http://www.w3.org/2000/svg" xmlns:xlink="http://www.w3.org/1999/xlink" x="0px" y="0px"
	 viewBox="0 0 334 387" style="enable-background:new 0 0 334 387;" xml:space="preserve">
<style type="text/css">
	.st0{fill:none;stroke:#000000;stroke-width:7;stroke-linecap:round;stroke-miterlimit:10;}
	.st1{fill:none;stroke:#000000;stroke-miterlimit:10;}
	.st2{stroke:#000000;stroke-miterlimit:10;}
	.st3{fill:none;stroke:#000000;stroke-width:4;stroke-linecap:round;stroke-miterlimit:10;}
	.st4{fill:none;stroke:#000000;stroke-width:5;stroke-linecap:round;stroke-miterlimit:10;}
	.st5{fill:none;stroke:#000000;stroke-width:6;stroke-linecap:round;stroke-miterlimit:10;}
	.st6{fill:none;stroke:#000000;stroke-width:3;stroke-linecap:round;stroke-miterlimit:10;}
</style>
<path class="st0" d="M154.1,196.7c-4,6.6-12.8,19.2-28.9,28.8c-14,8.4-27.2,10.8-34.7,11.6c-15.3,0.5-30.6,1-45.9,1.5
	c-2.4-0.7-4.8-1.3-7.1-2c-6.2-5.4-7.4-9.6-7.3-12.6c0-1.2,0.5-7.1,2-12.1c0.2-0.7,0.9-2.6,0.2-4.5c-0.4-1.2-1.1-1.7-2-2.7
	c-1.7-2-3-4.5-3.4-6.3c-0.8-3,0.9-3.6,0.9-7.5c0-4.4-2.2-5.1-2.4-8.9c-0.3-5.4,4-6.3,3.7-10.2c-0.5-6.6-12.7-7.7-14.8-16.3
	c-0.7-2.7-0.1-5.2,0.5-6.9c4.3-5.2,8.5-10.5,12.8-15.7c2.9-4.9,5.7-9.8,8.6-14.7c0.1-1.5,0.3-3.9,0.4-6.7
	c0.9-14.8,0.5-17.8,1.4-22.8c1.1-6.4,3.2-10.7,6.1-16.6c2.7-5.5,7.8-15.8,16-22.6c1.4-1.1,4.3-3.4,7.7-7.1c2.2-2.4,2.8-3.4,5-6
	c0,0,3.4-4,8.2-8.3c4.7-4.3,22-13.6,48.6-14.4c8.4-0.2,31.5-0.5,57.1,12.2c61,30.2,71.9,102.3,69.4,114.1c-0.1,0.4-1,4.6-2.2,10.5
	c-1.7,8.5-2.5,13.7-2.9,15.9c-1.1,6-3.9,14.8-11.4,26c-3,4.4-6.1,8.9-9.1,13.3c-2.5,2-5,4-7.6,6c-0.8,1-2,2.6-3,4.8
	c-1.1,2.2-1.5,4-1.6,4.3c-0.7,2.6-4.1,6.9-14.9,14.5c0.1,4,0.3,7.2,0.4,9c1.5,19.8,3.3,42.9,22.2,64.3c0,0,0.1,0.1,0.1,0.1
	c3.1,3.5,16.4,18.1,43.2,29.3c3.6,1.5,2.5,0.9,16.7,6.4c11.3,4.4,15,6,19.4,8.8c5.5,3.5,9.4,7.3,11.9,10.1"/>
<path class="st0" d="M258.6,350.8c-27.3,4.3-54.6,8.5-81.9,12.8"/>
<path class="st0" d="M59,190.6c-5.9-1.5-13.3-2.8-21.8-2.8c-3.5,0-6.8,0.2-9.8,0.5"/>
<path class="st1" d="M51.6,195.6"/>
<path class="st0" d="M52.7,194.4c-1.5,2-4.9,6-10.6,8.6c-4.6,2.1-8.8,2.4-11.2,2.4"/>
<path class="st0" d="M41.4,164.2c-1.3-0.9-3.2-2.1-5.6-3c-2.3-0.9-4.5-1.3-6.1-1.5"/>
<path class="st0" d="M98.4,120.6c-1.7,1.4-10.3,7.8-22.1,6.3c-7.7-1-13-5-15.1-6.8"/>
<path class="st0" d="M104.4,97.3c-4.8-1.6-11.9-3.5-20.8-3.6c-9.9-0.1-17.8,2.1-22.8,3.9"/>
<path class="st0" d="M67.9,42.4c5,1.4,12.6,3.9,20.7,9.1c15.9,10.2,24.5,24.6,34,40.7c9.1,15.5,8.7,19,17.4,29.8
	c7.4,9.2,15.1,18.6,25.9,19.2c9,0.6,12.2-5.4,19.4-3.1c7.6,2.5,11.9,11.7,12.8,18.9c1.6,14.3-11.1,24.2-15.6,27.7
	c-3.4,2.7-7.8,6-14,5.8c-5-0.1-8.7-2.4-10.6-3.7"/>
<path class="st0" d="M167.2,172.9c5.5,0.6,10.6-1.7,12.8-5.8c2.1-4,2-10.5-1.5-12.3c-2.7-1.4-6.2,0.6-6.8,1"/>
<circle class="st2" cx="64" cy="218.5" r="2.7"/>
<circle class="st2" cx="76.1" cy="217.7" r="4.1"/>
<circle class="st2" cx="91.6" cy="214.4" r="4.1"/>
<circle class="st2" cx="107.6" cy="207.6" r="4.1"/>
<circle class="st2" cx="121.9" cy="198.1" r="3.4"/>
<circle class="st2" cx="133.7" cy="185.3" r="4.7"/>
<circle class="st2" cx="141.7" cy="173" r="2.9"/>
<circle class="st2" cx="140.2" cy="160.8" r="2.9"/>
<circle class="st2" cx="142.4" cy="146.3" r="2.9"/>
<path class="st3" d="M200.2,58c-4.2-1.7-52-20.8-83.2-24.9c-11.4-1.5-20.3-0.9-29.1,2.4C81,38.1,76.1,41.6,73.1,44"/>
<path class="st4" d="M238.3,116.9c-6.4-9.3-13.1-14.7-18-17.9c-9.2-6-14.2-5.6-28.9-13.6c-9-4.9-7.5-5.2-16.4-10.1
	c-10.9-6-15.1-6.6-33-14c-20.5-8.5-19.7-9.7-27.9-11.9c-13.6-3.7-25.5-3-33.1-2"/>
<path class="st5" d="M251.8,162.2c-1.3-4-3.5-9.8-7.4-16.2c-5.1-8.3-10.6-13.3-18.6-20.4c-5.5-5-13.4-11.4-23.5-18.2"/>
<path class="st4" d="M242.3,188.4c0-3.6-0.4-9.2-2.4-15.6c-4.5-14.5-14.1-23.2-22.3-30.6c-10.5-9.6-20.4-14.7-23.7-16.3
	c-9-4.5-10.4-3.5-19.3-8.2c-11.3-6-18.9-12.8-22.6-16.3c-3.6-3.3-8.1-8.5-17.3-18.8C125.1,71.7,123.2,69,118.3,66
	c-7.2-4.5-14.4-5.8-19.2-6.2"/>
<path class="st4" d="M177.4,138.6c-1.9-1.9-5-4.9-8.9-8.4c-11.2-10.1-15.1-11.9-19.1-16.9c-3.4-4.2-7.2-11.2-7.9-23.1"/>
<path class="st3" d="M238.4,194.3c-6.8-2.6-11.8-5.6-15.2-7.8c-4.3-2.8-7.8-5.8-14.5-11.6c-4.8-4.1-8.6-7.6-11.2-10"/>
<path class="st3" d="M174.7,200.9c6.4,1,19.4,2.2,33.8-3.7c7-2.9,12.4-6.6,16.2-9.8"/>
<path class="st5" d="M187.4,219.4c4,0.5,9.6,0.8,16.2-0.3c8.8-1.5,15.4-4.9,19.4-7.3"/>
<path class="st0" d="M255.1,126.3c4.4-1.8,14.7-5.1,26.8-2.2c16.1,3.9,24.5,16.4,28.3,22.1c13.8,20.3,10.7,42.6,9.8,48.1
	c-0.9,5.6-5.9,34.1-33.1,50.4c-19.5,11.7-42.3,12.3-59.1,5.9c-12.5-4.8-23-14-24.4-15.3c-2.9-2.6-6.4-6.5-13.4-14.2
	c-9.2-10.3-11.9-14.1-13.6-17c-3.3-5.4-5.3-10.2-6.5-13.5"/>
<path class="st4" d="M231.5,251.8c6.3-0.2,29.8-1.9,48.6-20.6c1.4-1.4,26.6-27.3,20-59.4c-2.7-13.1-9.7-22.3-12.6-26.2
	c-9.5-12.3-20.8-18.4-26.9-21.2"/>
<path class="st3" d="M212.2,241.3c4.4,0,10.6-0.4,17.9-1.9c8.9-1.8,19.5-4,29.9-12.1c10.8-8.5,15.5-18.9,17.4-23.1
	c2-4.5,6.5-15,5.2-27.8c-2.4-22.9-21.9-36.1-25.2-38.2"/>
<path class="st6" d="M216.3,224.4c4.7,0.4,12.7,0.5,21-3.3c13.1-6,18.8-17.6,22.9-25.9c9.5-19.3,8.9-38.1,7.6-48.3"/>
<circle class="st2" cx="163.6" cy="367.6" r="4.1"/>
<circle class="st2" cx="149.7" cy="371.1" r="2.7"/>
<path class="st0" d="M12.6,362.9c2.8-2.7,7-6.5,12.7-10.2c11.8-7.8,18.7-7.9,32.8-13.1c16-5.9,33.8-12.5,41.9-28.4
	c2.8-5.6,3.6-10.6,4.3-15.1c2.4-16-2-28.7-4.3-35.1c-2.1-5.9-6-14.6-13.3-23.7"/>
<path class="st0" d="M65.2,351.4c5.7,1.1,12.5,2.4,20.3,3.9c7.2,1.4,11.8,2.4,17.9,4.4c2.9,1,5.3,1.9,7,2.6"/>
</svg>
