<?xml version="1.0" encoding="utf-8"?>
<!-- Generator: Adobe Illustrator 25.2.1, SVG Export Plug-In . SVG Version: 6.00 Build 0)  -->
<svg version="1.1" id="Capa_1" xmlns="http://www.w3.org/2000/svg" xmlns:xlink="http://www.w3.org/1999/xlink" x="0px" y="0px"
	 viewBox="0 0 292.1 48.3" style="enable-background:new 0 0 292.1 48.3;" xml:space="preserve">
<style type="text/css">
	.st0{fill:none;stroke:#000000;stroke-width:3;stroke-linecap:round;}
</style>
<path class="st0" d="M70.8,9.2c11-1,20.1-0.9,26.7-0.5c11.6,0.6,18.9,1,27.9,4.3c3.1,1.1,8.8,4.3,20,10.7
	c17.2,9.7,17.5,10.4,21.2,11.6c9.9,3.2,18.2,1.8,29.6,0c18-2.9,18.8-7.3,35.5-9.4c4.4-0.6,11.7-0.6,26.4-0.6
	c10.7,0,19.7,0.1,25.9,0.2"/>
<path class="st0" d="M7,25c11.4,0.2,20.6,0.2,26.9,0c15.8-0.3,19.9-0.9,28.3,0.5c8.3,1.4,10.4,3,21.4,6.1c3.9,1.1,20.2,5.8,30.8,6.3
	c25.2,1.2,32.3-20.5,61.8-28.1c9.1-2.3,23.7-4.2,43.7,1.4"/>
<path class="st0" d="M103.1,22c8.2,2,14.9,4.4,20.3,6.5c12.2,4.8,15.4,7.9,22.5,7.7c5.9-0.2,7.9-2.5,18-6.6
	c5.5-2.3,13.4-5.1,23.5-7.3"/>
</svg>
